<mxfile host="app.diagrams.net" modified="2023-04-18T15:47:42.330Z" agent="Mozilla/5.0 (Windows NT 10.0; Win64; x64) AppleWebKit/537.36 (KHTML, like Gecko) Chrome/112.0.0.0 Safari/537.36" etag="9BFtqyWYb8B1P7QYxgVd" version="21.1.8" type="device">
  <diagram id="C5RBs43oDa-KdzZeNtuy" name="Page-1">
    <mxGraphModel dx="2577" dy="2071" grid="1" gridSize="10" guides="1" tooltips="1" connect="1" arrows="1" fold="1" page="1" pageScale="1" pageWidth="827" pageHeight="1169" math="0" shadow="0">
      <root>
        <mxCell id="WIyWlLk6GJQsqaUBKTNV-0" />
        <mxCell id="WIyWlLk6GJQsqaUBKTNV-1" parent="WIyWlLk6GJQsqaUBKTNV-0" />
        <mxCell id="dBIomlq2-YmWtFzMOmSG-50" value="Redis Repository" style="swimlane;startSize=20;" vertex="1" parent="WIyWlLk6GJQsqaUBKTNV-1">
          <mxGeometry x="2590" y="600" width="872" height="480" as="geometry" />
        </mxCell>
        <mxCell id="dBIomlq2-YmWtFzMOmSG-51" value="Redis Set" style="rounded=1;whiteSpace=wrap;html=1;fontSize=12;glass=0;strokeWidth=1;shadow=0;" vertex="1" parent="dBIomlq2-YmWtFzMOmSG-50">
          <mxGeometry x="92" y="45" width="120" height="40" as="geometry" />
        </mxCell>
        <mxCell id="dBIomlq2-YmWtFzMOmSG-52" value="" style="rhombus;whiteSpace=wrap;html=1;shadow=0;fontFamily=Helvetica;fontSize=12;align=center;strokeWidth=1;spacing=6;spacingTop=-4;" vertex="1" parent="dBIomlq2-YmWtFzMOmSG-50">
          <mxGeometry x="102" y="250" width="100" height="80" as="geometry" />
        </mxCell>
        <mxCell id="dBIomlq2-YmWtFzMOmSG-53" value="" style="rounded=0;html=1;jettySize=auto;orthogonalLoop=1;fontSize=11;endArrow=block;endFill=1;endSize=8;strokeWidth=1;shadow=0;labelBackgroundColor=none;edgeStyle=orthogonalEdgeStyle;entryX=0.5;entryY=0;entryDx=0;entryDy=0;" edge="1" parent="dBIomlq2-YmWtFzMOmSG-50" source="dBIomlq2-YmWtFzMOmSG-51" target="dBIomlq2-YmWtFzMOmSG-62">
          <mxGeometry relative="1" as="geometry" />
        </mxCell>
        <mxCell id="dBIomlq2-YmWtFzMOmSG-54" value="Return error" style="rounded=1;whiteSpace=wrap;html=1;fontSize=12;glass=0;strokeWidth=1;shadow=0;" vertex="1" parent="dBIomlq2-YmWtFzMOmSG-50">
          <mxGeometry x="12" y="400" width="120" height="40" as="geometry" />
        </mxCell>
        <mxCell id="dBIomlq2-YmWtFzMOmSG-55" value="Error" style="edgeStyle=orthogonalEdgeStyle;rounded=0;html=1;jettySize=auto;orthogonalLoop=1;fontSize=11;endArrow=block;endFill=1;endSize=8;strokeWidth=1;shadow=0;labelBackgroundColor=none;exitX=0.5;exitY=1;exitDx=0;exitDy=0;" edge="1" parent="dBIomlq2-YmWtFzMOmSG-50" source="dBIomlq2-YmWtFzMOmSG-52" target="dBIomlq2-YmWtFzMOmSG-54">
          <mxGeometry y="-5" relative="1" as="geometry">
            <mxPoint as="offset" />
          </mxGeometry>
        </mxCell>
        <mxCell id="dBIomlq2-YmWtFzMOmSG-56" value="Success" style="rounded=0;html=1;jettySize=auto;orthogonalLoop=1;fontSize=11;endArrow=block;endFill=1;endSize=8;strokeWidth=1;shadow=0;labelBackgroundColor=none;edgeStyle=orthogonalEdgeStyle;align=center;entryX=0.5;entryY=0;entryDx=0;entryDy=0;" edge="1" parent="dBIomlq2-YmWtFzMOmSG-50" source="dBIomlq2-YmWtFzMOmSG-52" target="dBIomlq2-YmWtFzMOmSG-63">
          <mxGeometry x="0.0714" y="5" relative="1" as="geometry">
            <mxPoint as="offset" />
            <mxPoint x="192" y="400" as="targetPoint" />
          </mxGeometry>
        </mxCell>
        <mxCell id="dBIomlq2-YmWtFzMOmSG-57" value="" style="edgeStyle=orthogonalEdgeStyle;rounded=0;orthogonalLoop=1;jettySize=auto;html=1;endArrow=block;endFill=1;" edge="1" parent="dBIomlq2-YmWtFzMOmSG-50" source="dBIomlq2-YmWtFzMOmSG-58" target="dBIomlq2-YmWtFzMOmSG-65">
          <mxGeometry relative="1" as="geometry" />
        </mxCell>
        <mxCell id="dBIomlq2-YmWtFzMOmSG-58" value="Redis Get" style="rounded=1;whiteSpace=wrap;html=1;fontSize=12;glass=0;strokeWidth=1;shadow=0;" vertex="1" parent="dBIomlq2-YmWtFzMOmSG-50">
          <mxGeometry x="372" y="45" width="120" height="40" as="geometry" />
        </mxCell>
        <mxCell id="dBIomlq2-YmWtFzMOmSG-59" style="edgeStyle=orthogonalEdgeStyle;rounded=0;orthogonalLoop=1;jettySize=auto;html=1;" edge="1" parent="dBIomlq2-YmWtFzMOmSG-50" source="dBIomlq2-YmWtFzMOmSG-60" target="dBIomlq2-YmWtFzMOmSG-73">
          <mxGeometry relative="1" as="geometry" />
        </mxCell>
        <mxCell id="dBIomlq2-YmWtFzMOmSG-60" value="Redis Delete" style="rounded=1;whiteSpace=wrap;html=1;fontSize=12;glass=0;strokeWidth=1;shadow=0;" vertex="1" parent="dBIomlq2-YmWtFzMOmSG-50">
          <mxGeometry x="662" y="45" width="120" height="40" as="geometry" />
        </mxCell>
        <mxCell id="dBIomlq2-YmWtFzMOmSG-61" style="edgeStyle=orthogonalEdgeStyle;rounded=0;orthogonalLoop=1;jettySize=auto;html=1;entryX=0.5;entryY=0;entryDx=0;entryDy=0;endArrow=block;endFill=1;" edge="1" parent="dBIomlq2-YmWtFzMOmSG-50" source="dBIomlq2-YmWtFzMOmSG-62" target="dBIomlq2-YmWtFzMOmSG-52">
          <mxGeometry relative="1" as="geometry" />
        </mxCell>
        <mxCell id="dBIomlq2-YmWtFzMOmSG-62" value="Set key and value in redis" style="rounded=1;whiteSpace=wrap;html=1;fontSize=12;glass=0;strokeWidth=1;shadow=0;" vertex="1" parent="dBIomlq2-YmWtFzMOmSG-50">
          <mxGeometry x="92" y="150" width="120" height="40" as="geometry" />
        </mxCell>
        <mxCell id="dBIomlq2-YmWtFzMOmSG-63" value="Return success" style="rounded=1;whiteSpace=wrap;html=1;fontSize=12;glass=0;strokeWidth=1;shadow=0;" vertex="1" parent="dBIomlq2-YmWtFzMOmSG-50">
          <mxGeometry x="162" y="400" width="120" height="40" as="geometry" />
        </mxCell>
        <mxCell id="dBIomlq2-YmWtFzMOmSG-64" value="" style="edgeStyle=orthogonalEdgeStyle;rounded=0;orthogonalLoop=1;jettySize=auto;html=1;entryX=0.5;entryY=0;entryDx=0;entryDy=0;endArrow=block;endFill=1;" edge="1" parent="dBIomlq2-YmWtFzMOmSG-50" source="dBIomlq2-YmWtFzMOmSG-65" target="dBIomlq2-YmWtFzMOmSG-70">
          <mxGeometry relative="1" as="geometry">
            <mxPoint x="432" y="250" as="targetPoint" />
          </mxGeometry>
        </mxCell>
        <mxCell id="dBIomlq2-YmWtFzMOmSG-65" value="Get value by key" style="whiteSpace=wrap;html=1;rounded=1;glass=0;strokeWidth=1;shadow=0;" vertex="1" parent="dBIomlq2-YmWtFzMOmSG-50">
          <mxGeometry x="372" y="150" width="120" height="40" as="geometry" />
        </mxCell>
        <mxCell id="dBIomlq2-YmWtFzMOmSG-66" value="" style="edgeStyle=orthogonalEdgeStyle;rounded=0;orthogonalLoop=1;jettySize=auto;html=1;endArrow=block;endFill=1;" edge="1" parent="dBIomlq2-YmWtFzMOmSG-50" source="dBIomlq2-YmWtFzMOmSG-70" target="dBIomlq2-YmWtFzMOmSG-71">
          <mxGeometry relative="1" as="geometry">
            <mxPoint x="372" y="380.0000000000001" as="targetPoint" />
          </mxGeometry>
        </mxCell>
        <mxCell id="dBIomlq2-YmWtFzMOmSG-67" value="Success" style="edgeLabel;html=1;align=center;verticalAlign=middle;resizable=0;points=[];" vertex="1" connectable="0" parent="dBIomlq2-YmWtFzMOmSG-66">
          <mxGeometry x="0.2167" y="-1" relative="1" as="geometry">
            <mxPoint x="8" y="1" as="offset" />
          </mxGeometry>
        </mxCell>
        <mxCell id="dBIomlq2-YmWtFzMOmSG-68" style="edgeStyle=orthogonalEdgeStyle;rounded=0;orthogonalLoop=1;jettySize=auto;html=1;exitX=0.5;exitY=1;exitDx=0;exitDy=0;endArrow=block;endFill=1;" edge="1" parent="dBIomlq2-YmWtFzMOmSG-50" source="dBIomlq2-YmWtFzMOmSG-70" target="dBIomlq2-YmWtFzMOmSG-72">
          <mxGeometry relative="1" as="geometry" />
        </mxCell>
        <mxCell id="dBIomlq2-YmWtFzMOmSG-69" value="Error" style="edgeLabel;html=1;align=center;verticalAlign=middle;resizable=0;points=[];" vertex="1" connectable="0" parent="dBIomlq2-YmWtFzMOmSG-68">
          <mxGeometry x="-0.549" y="2" relative="1" as="geometry">
            <mxPoint x="31" y="6" as="offset" />
          </mxGeometry>
        </mxCell>
        <mxCell id="dBIomlq2-YmWtFzMOmSG-70" value="has key?" style="rhombus;whiteSpace=wrap;html=1;shadow=0;fontFamily=Helvetica;fontSize=12;align=center;strokeWidth=1;spacing=6;spacingTop=-4;" vertex="1" parent="dBIomlq2-YmWtFzMOmSG-50">
          <mxGeometry x="382" y="250" width="100" height="80" as="geometry" />
        </mxCell>
        <mxCell id="dBIomlq2-YmWtFzMOmSG-71" value="Return data" style="rounded=1;whiteSpace=wrap;html=1;fontSize=12;glass=0;strokeWidth=1;shadow=0;" vertex="1" parent="dBIomlq2-YmWtFzMOmSG-50">
          <mxGeometry x="302" y="400" width="120" height="40" as="geometry" />
        </mxCell>
        <mxCell id="dBIomlq2-YmWtFzMOmSG-72" value="Return null" style="rounded=1;whiteSpace=wrap;html=1;fontSize=12;glass=0;strokeWidth=1;shadow=0;" vertex="1" parent="dBIomlq2-YmWtFzMOmSG-50">
          <mxGeometry x="432" y="400" width="120" height="40" as="geometry" />
        </mxCell>
        <mxCell id="dBIomlq2-YmWtFzMOmSG-73" value="Delete value by key" style="whiteSpace=wrap;html=1;rounded=1;glass=0;strokeWidth=1;shadow=0;" vertex="1" parent="dBIomlq2-YmWtFzMOmSG-50">
          <mxGeometry x="662" y="150" width="120" height="40" as="geometry" />
        </mxCell>
        <mxCell id="dBIomlq2-YmWtFzMOmSG-74" value="has key?" style="rhombus;whiteSpace=wrap;html=1;shadow=0;fontFamily=Helvetica;fontSize=12;align=center;strokeWidth=1;spacing=6;spacingTop=-4;" vertex="1" parent="dBIomlq2-YmWtFzMOmSG-50">
          <mxGeometry x="672" y="250" width="100" height="80" as="geometry" />
        </mxCell>
        <mxCell id="dBIomlq2-YmWtFzMOmSG-75" value="" style="edgeStyle=orthogonalEdgeStyle;rounded=0;orthogonalLoop=1;jettySize=auto;html=1;entryX=0.5;entryY=0;entryDx=0;entryDy=0;endArrow=block;endFill=1;" edge="1" parent="dBIomlq2-YmWtFzMOmSG-50" source="dBIomlq2-YmWtFzMOmSG-73" target="dBIomlq2-YmWtFzMOmSG-74">
          <mxGeometry relative="1" as="geometry">
            <mxPoint x="722" y="250" as="targetPoint" />
          </mxGeometry>
        </mxCell>
        <mxCell id="dBIomlq2-YmWtFzMOmSG-76" value="Return data" style="rounded=1;whiteSpace=wrap;html=1;fontSize=12;glass=0;strokeWidth=1;shadow=0;" vertex="1" parent="dBIomlq2-YmWtFzMOmSG-50">
          <mxGeometry x="592" y="400" width="120" height="40" as="geometry" />
        </mxCell>
        <mxCell id="dBIomlq2-YmWtFzMOmSG-77" value="" style="edgeStyle=orthogonalEdgeStyle;rounded=0;orthogonalLoop=1;jettySize=auto;html=1;endArrow=block;endFill=1;" edge="1" parent="dBIomlq2-YmWtFzMOmSG-50" source="dBIomlq2-YmWtFzMOmSG-74" target="dBIomlq2-YmWtFzMOmSG-76">
          <mxGeometry relative="1" as="geometry">
            <mxPoint x="662" y="380.0000000000001" as="targetPoint" />
          </mxGeometry>
        </mxCell>
        <mxCell id="dBIomlq2-YmWtFzMOmSG-78" value="Success" style="edgeLabel;html=1;align=center;verticalAlign=middle;resizable=0;points=[];" vertex="1" connectable="0" parent="dBIomlq2-YmWtFzMOmSG-77">
          <mxGeometry x="0.2167" y="-1" relative="1" as="geometry">
            <mxPoint x="8" y="1" as="offset" />
          </mxGeometry>
        </mxCell>
        <mxCell id="dBIomlq2-YmWtFzMOmSG-79" value="Return null" style="rounded=1;whiteSpace=wrap;html=1;fontSize=12;glass=0;strokeWidth=1;shadow=0;" vertex="1" parent="dBIomlq2-YmWtFzMOmSG-50">
          <mxGeometry x="722" y="400" width="120" height="40" as="geometry" />
        </mxCell>
        <mxCell id="dBIomlq2-YmWtFzMOmSG-80" style="edgeStyle=orthogonalEdgeStyle;rounded=0;orthogonalLoop=1;jettySize=auto;html=1;exitX=0.5;exitY=1;exitDx=0;exitDy=0;endArrow=block;endFill=1;" edge="1" parent="dBIomlq2-YmWtFzMOmSG-50" source="dBIomlq2-YmWtFzMOmSG-74" target="dBIomlq2-YmWtFzMOmSG-79">
          <mxGeometry relative="1" as="geometry" />
        </mxCell>
        <mxCell id="dBIomlq2-YmWtFzMOmSG-81" value="Error" style="edgeLabel;html=1;align=center;verticalAlign=middle;resizable=0;points=[];" vertex="1" connectable="0" parent="dBIomlq2-YmWtFzMOmSG-80">
          <mxGeometry x="-0.549" y="2" relative="1" as="geometry">
            <mxPoint x="31" y="6" as="offset" />
          </mxGeometry>
        </mxCell>
        <mxCell id="dBIomlq2-YmWtFzMOmSG-82" value="Tags Repository" style="swimlane;startSize=20;" vertex="1" parent="WIyWlLk6GJQsqaUBKTNV-1">
          <mxGeometry x="1080" y="610" width="1480" height="480" as="geometry" />
        </mxCell>
        <mxCell id="dBIomlq2-YmWtFzMOmSG-84" value="Get tags" style="rounded=1;whiteSpace=wrap;html=1;fontSize=12;glass=0;strokeWidth=1;shadow=0;" vertex="1" parent="dBIomlq2-YmWtFzMOmSG-82">
          <mxGeometry x="100" y="45" width="120" height="40" as="geometry" />
        </mxCell>
        <mxCell id="dBIomlq2-YmWtFzMOmSG-85" value="Access database and get tags" style="whiteSpace=wrap;html=1;rounded=1;glass=0;strokeWidth=1;shadow=0;" vertex="1" parent="dBIomlq2-YmWtFzMOmSG-82">
          <mxGeometry x="100" y="150" width="120" height="40" as="geometry" />
        </mxCell>
        <mxCell id="dBIomlq2-YmWtFzMOmSG-83" style="edgeStyle=orthogonalEdgeStyle;rounded=0;orthogonalLoop=1;jettySize=auto;html=1;" edge="1" parent="dBIomlq2-YmWtFzMOmSG-82" source="dBIomlq2-YmWtFzMOmSG-84" target="dBIomlq2-YmWtFzMOmSG-85">
          <mxGeometry relative="1" as="geometry" />
        </mxCell>
        <mxCell id="dBIomlq2-YmWtFzMOmSG-86" value="" style="rhombus;whiteSpace=wrap;html=1;shadow=0;fontFamily=Helvetica;fontSize=12;align=center;strokeWidth=1;spacing=6;spacingTop=-4;" vertex="1" parent="dBIomlq2-YmWtFzMOmSG-82">
          <mxGeometry x="110" y="250" width="100" height="80" as="geometry" />
        </mxCell>
        <mxCell id="dBIomlq2-YmWtFzMOmSG-87" value="" style="edgeStyle=orthogonalEdgeStyle;rounded=0;orthogonalLoop=1;jettySize=auto;html=1;entryX=0.5;entryY=0;entryDx=0;entryDy=0;endArrow=block;endFill=1;" edge="1" parent="dBIomlq2-YmWtFzMOmSG-82" source="dBIomlq2-YmWtFzMOmSG-85" target="dBIomlq2-YmWtFzMOmSG-86">
          <mxGeometry relative="1" as="geometry">
            <mxPoint x="160" y="250" as="targetPoint" />
          </mxGeometry>
        </mxCell>
        <mxCell id="dBIomlq2-YmWtFzMOmSG-88" value="Return data" style="rounded=1;whiteSpace=wrap;html=1;fontSize=12;glass=0;strokeWidth=1;shadow=0;" vertex="1" parent="dBIomlq2-YmWtFzMOmSG-82">
          <mxGeometry x="30" y="400" width="120" height="40" as="geometry" />
        </mxCell>
        <mxCell id="dBIomlq2-YmWtFzMOmSG-89" value="" style="edgeStyle=orthogonalEdgeStyle;rounded=0;orthogonalLoop=1;jettySize=auto;html=1;endArrow=block;endFill=1;" edge="1" parent="dBIomlq2-YmWtFzMOmSG-82" source="dBIomlq2-YmWtFzMOmSG-86" target="dBIomlq2-YmWtFzMOmSG-88">
          <mxGeometry relative="1" as="geometry">
            <mxPoint x="100" y="380.0000000000001" as="targetPoint" />
          </mxGeometry>
        </mxCell>
        <mxCell id="dBIomlq2-YmWtFzMOmSG-90" value="Success" style="edgeLabel;html=1;align=center;verticalAlign=middle;resizable=0;points=[];" vertex="1" connectable="0" parent="dBIomlq2-YmWtFzMOmSG-89">
          <mxGeometry x="0.2167" y="-1" relative="1" as="geometry">
            <mxPoint x="8" y="1" as="offset" />
          </mxGeometry>
        </mxCell>
        <mxCell id="dBIomlq2-YmWtFzMOmSG-91" value="Return error" style="rounded=1;whiteSpace=wrap;html=1;fontSize=12;glass=0;strokeWidth=1;shadow=0;" vertex="1" parent="dBIomlq2-YmWtFzMOmSG-82">
          <mxGeometry x="170" y="400" width="120" height="40" as="geometry" />
        </mxCell>
        <mxCell id="dBIomlq2-YmWtFzMOmSG-92" style="edgeStyle=orthogonalEdgeStyle;rounded=0;orthogonalLoop=1;jettySize=auto;html=1;exitX=0.5;exitY=1;exitDx=0;exitDy=0;endArrow=block;endFill=1;" edge="1" parent="dBIomlq2-YmWtFzMOmSG-82" source="dBIomlq2-YmWtFzMOmSG-86" target="dBIomlq2-YmWtFzMOmSG-91">
          <mxGeometry relative="1" as="geometry" />
        </mxCell>
        <mxCell id="dBIomlq2-YmWtFzMOmSG-93" value="Error" style="edgeLabel;html=1;align=center;verticalAlign=middle;resizable=0;points=[];" vertex="1" connectable="0" parent="dBIomlq2-YmWtFzMOmSG-92">
          <mxGeometry x="-0.549" y="2" relative="1" as="geometry">
            <mxPoint x="31" y="4" as="offset" />
          </mxGeometry>
        </mxCell>
        <mxCell id="dBIomlq2-YmWtFzMOmSG-94" value="Find tag" style="rounded=1;whiteSpace=wrap;html=1;fontSize=12;glass=0;strokeWidth=1;shadow=0;" vertex="1" parent="dBIomlq2-YmWtFzMOmSG-82">
          <mxGeometry x="390" y="45" width="120" height="40" as="geometry" />
        </mxCell>
        <mxCell id="dBIomlq2-YmWtFzMOmSG-95" value="Access database and get tag" style="whiteSpace=wrap;html=1;rounded=1;glass=0;strokeWidth=1;shadow=0;" vertex="1" parent="dBIomlq2-YmWtFzMOmSG-82">
          <mxGeometry x="390" y="150" width="120" height="40" as="geometry" />
        </mxCell>
        <mxCell id="dBIomlq2-YmWtFzMOmSG-96" style="edgeStyle=orthogonalEdgeStyle;rounded=0;orthogonalLoop=1;jettySize=auto;html=1;" edge="1" parent="dBIomlq2-YmWtFzMOmSG-82" source="dBIomlq2-YmWtFzMOmSG-94" target="dBIomlq2-YmWtFzMOmSG-95">
          <mxGeometry relative="1" as="geometry" />
        </mxCell>
        <mxCell id="dBIomlq2-YmWtFzMOmSG-97" value="" style="rhombus;whiteSpace=wrap;html=1;shadow=0;fontFamily=Helvetica;fontSize=12;align=center;strokeWidth=1;spacing=6;spacingTop=-4;" vertex="1" parent="dBIomlq2-YmWtFzMOmSG-82">
          <mxGeometry x="400" y="250" width="100" height="80" as="geometry" />
        </mxCell>
        <mxCell id="dBIomlq2-YmWtFzMOmSG-98" value="" style="edgeStyle=orthogonalEdgeStyle;rounded=0;orthogonalLoop=1;jettySize=auto;html=1;entryX=0.5;entryY=0;entryDx=0;entryDy=0;endArrow=block;endFill=1;" edge="1" parent="dBIomlq2-YmWtFzMOmSG-82" source="dBIomlq2-YmWtFzMOmSG-95" target="dBIomlq2-YmWtFzMOmSG-97">
          <mxGeometry relative="1" as="geometry">
            <mxPoint x="450" y="250" as="targetPoint" />
          </mxGeometry>
        </mxCell>
        <mxCell id="dBIomlq2-YmWtFzMOmSG-99" value="Return data" style="rounded=1;whiteSpace=wrap;html=1;fontSize=12;glass=0;strokeWidth=1;shadow=0;" vertex="1" parent="dBIomlq2-YmWtFzMOmSG-82">
          <mxGeometry x="320" y="400" width="120" height="40" as="geometry" />
        </mxCell>
        <mxCell id="dBIomlq2-YmWtFzMOmSG-100" value="" style="edgeStyle=orthogonalEdgeStyle;rounded=0;orthogonalLoop=1;jettySize=auto;html=1;endArrow=block;endFill=1;" edge="1" parent="dBIomlq2-YmWtFzMOmSG-82" source="dBIomlq2-YmWtFzMOmSG-97" target="dBIomlq2-YmWtFzMOmSG-99">
          <mxGeometry relative="1" as="geometry">
            <mxPoint x="390" y="380.0000000000001" as="targetPoint" />
          </mxGeometry>
        </mxCell>
        <mxCell id="dBIomlq2-YmWtFzMOmSG-101" value="Success" style="edgeLabel;html=1;align=center;verticalAlign=middle;resizable=0;points=[];" vertex="1" connectable="0" parent="dBIomlq2-YmWtFzMOmSG-100">
          <mxGeometry x="0.2167" y="-1" relative="1" as="geometry">
            <mxPoint x="8" y="1" as="offset" />
          </mxGeometry>
        </mxCell>
        <mxCell id="dBIomlq2-YmWtFzMOmSG-102" value="Return error" style="rounded=1;whiteSpace=wrap;html=1;fontSize=12;glass=0;strokeWidth=1;shadow=0;" vertex="1" parent="dBIomlq2-YmWtFzMOmSG-82">
          <mxGeometry x="460" y="400" width="120" height="40" as="geometry" />
        </mxCell>
        <mxCell id="dBIomlq2-YmWtFzMOmSG-103" style="edgeStyle=orthogonalEdgeStyle;rounded=0;orthogonalLoop=1;jettySize=auto;html=1;exitX=0.5;exitY=1;exitDx=0;exitDy=0;endArrow=block;endFill=1;" edge="1" parent="dBIomlq2-YmWtFzMOmSG-82" source="dBIomlq2-YmWtFzMOmSG-97" target="dBIomlq2-YmWtFzMOmSG-102">
          <mxGeometry relative="1" as="geometry" />
        </mxCell>
        <mxCell id="dBIomlq2-YmWtFzMOmSG-104" value="Error" style="edgeLabel;html=1;align=center;verticalAlign=middle;resizable=0;points=[];" vertex="1" connectable="0" parent="dBIomlq2-YmWtFzMOmSG-103">
          <mxGeometry x="-0.549" y="2" relative="1" as="geometry">
            <mxPoint x="31" y="4" as="offset" />
          </mxGeometry>
        </mxCell>
        <mxCell id="dBIomlq2-YmWtFzMOmSG-105" value="Create tag" style="rounded=1;whiteSpace=wrap;html=1;fontSize=12;glass=0;strokeWidth=1;shadow=0;" vertex="1" parent="dBIomlq2-YmWtFzMOmSG-82">
          <mxGeometry x="680" y="45" width="120" height="40" as="geometry" />
        </mxCell>
        <mxCell id="dBIomlq2-YmWtFzMOmSG-106" value="Access database and create tag" style="whiteSpace=wrap;html=1;rounded=1;glass=0;strokeWidth=1;shadow=0;" vertex="1" parent="dBIomlq2-YmWtFzMOmSG-82">
          <mxGeometry x="680" y="150" width="120" height="40" as="geometry" />
        </mxCell>
        <mxCell id="dBIomlq2-YmWtFzMOmSG-107" style="edgeStyle=orthogonalEdgeStyle;rounded=0;orthogonalLoop=1;jettySize=auto;html=1;" edge="1" parent="dBIomlq2-YmWtFzMOmSG-82" source="dBIomlq2-YmWtFzMOmSG-105" target="dBIomlq2-YmWtFzMOmSG-106">
          <mxGeometry relative="1" as="geometry" />
        </mxCell>
        <mxCell id="dBIomlq2-YmWtFzMOmSG-108" value="" style="rhombus;whiteSpace=wrap;html=1;shadow=0;fontFamily=Helvetica;fontSize=12;align=center;strokeWidth=1;spacing=6;spacingTop=-4;" vertex="1" parent="dBIomlq2-YmWtFzMOmSG-82">
          <mxGeometry x="690" y="250" width="100" height="80" as="geometry" />
        </mxCell>
        <mxCell id="dBIomlq2-YmWtFzMOmSG-109" value="" style="edgeStyle=orthogonalEdgeStyle;rounded=0;orthogonalLoop=1;jettySize=auto;html=1;entryX=0.5;entryY=0;entryDx=0;entryDy=0;endArrow=block;endFill=1;" edge="1" parent="dBIomlq2-YmWtFzMOmSG-82" source="dBIomlq2-YmWtFzMOmSG-106" target="dBIomlq2-YmWtFzMOmSG-108">
          <mxGeometry relative="1" as="geometry">
            <mxPoint x="740" y="250" as="targetPoint" />
          </mxGeometry>
        </mxCell>
        <mxCell id="dBIomlq2-YmWtFzMOmSG-110" value="Return null" style="rounded=1;whiteSpace=wrap;html=1;fontSize=12;glass=0;strokeWidth=1;shadow=0;" vertex="1" parent="dBIomlq2-YmWtFzMOmSG-82">
          <mxGeometry x="610" y="400" width="120" height="40" as="geometry" />
        </mxCell>
        <mxCell id="dBIomlq2-YmWtFzMOmSG-111" value="" style="edgeStyle=orthogonalEdgeStyle;rounded=0;orthogonalLoop=1;jettySize=auto;html=1;endArrow=block;endFill=1;" edge="1" parent="dBIomlq2-YmWtFzMOmSG-82" source="dBIomlq2-YmWtFzMOmSG-108" target="dBIomlq2-YmWtFzMOmSG-110">
          <mxGeometry relative="1" as="geometry">
            <mxPoint x="680" y="380.0000000000001" as="targetPoint" />
          </mxGeometry>
        </mxCell>
        <mxCell id="dBIomlq2-YmWtFzMOmSG-112" value="Success" style="edgeLabel;html=1;align=center;verticalAlign=middle;resizable=0;points=[];" vertex="1" connectable="0" parent="dBIomlq2-YmWtFzMOmSG-111">
          <mxGeometry x="0.2167" y="-1" relative="1" as="geometry">
            <mxPoint x="8" y="1" as="offset" />
          </mxGeometry>
        </mxCell>
        <mxCell id="dBIomlq2-YmWtFzMOmSG-113" value="Return error" style="rounded=1;whiteSpace=wrap;html=1;fontSize=12;glass=0;strokeWidth=1;shadow=0;" vertex="1" parent="dBIomlq2-YmWtFzMOmSG-82">
          <mxGeometry x="750" y="400" width="120" height="40" as="geometry" />
        </mxCell>
        <mxCell id="dBIomlq2-YmWtFzMOmSG-114" style="edgeStyle=orthogonalEdgeStyle;rounded=0;orthogonalLoop=1;jettySize=auto;html=1;exitX=0.5;exitY=1;exitDx=0;exitDy=0;endArrow=block;endFill=1;" edge="1" parent="dBIomlq2-YmWtFzMOmSG-82" source="dBIomlq2-YmWtFzMOmSG-108" target="dBIomlq2-YmWtFzMOmSG-113">
          <mxGeometry relative="1" as="geometry" />
        </mxCell>
        <mxCell id="dBIomlq2-YmWtFzMOmSG-115" value="Error" style="edgeLabel;html=1;align=center;verticalAlign=middle;resizable=0;points=[];" vertex="1" connectable="0" parent="dBIomlq2-YmWtFzMOmSG-114">
          <mxGeometry x="-0.549" y="2" relative="1" as="geometry">
            <mxPoint x="31" y="4" as="offset" />
          </mxGeometry>
        </mxCell>
        <mxCell id="dBIomlq2-YmWtFzMOmSG-116" value="Update tag" style="rounded=1;whiteSpace=wrap;html=1;fontSize=12;glass=0;strokeWidth=1;shadow=0;" vertex="1" parent="dBIomlq2-YmWtFzMOmSG-82">
          <mxGeometry x="980" y="45" width="120" height="40" as="geometry" />
        </mxCell>
        <mxCell id="dBIomlq2-YmWtFzMOmSG-117" value="Access database and update tag" style="whiteSpace=wrap;html=1;rounded=1;glass=0;strokeWidth=1;shadow=0;" vertex="1" parent="dBIomlq2-YmWtFzMOmSG-82">
          <mxGeometry x="980" y="150" width="120" height="40" as="geometry" />
        </mxCell>
        <mxCell id="dBIomlq2-YmWtFzMOmSG-118" style="edgeStyle=orthogonalEdgeStyle;rounded=0;orthogonalLoop=1;jettySize=auto;html=1;" edge="1" parent="dBIomlq2-YmWtFzMOmSG-82" source="dBIomlq2-YmWtFzMOmSG-116" target="dBIomlq2-YmWtFzMOmSG-117">
          <mxGeometry relative="1" as="geometry" />
        </mxCell>
        <mxCell id="dBIomlq2-YmWtFzMOmSG-119" value="" style="rhombus;whiteSpace=wrap;html=1;shadow=0;fontFamily=Helvetica;fontSize=12;align=center;strokeWidth=1;spacing=6;spacingTop=-4;" vertex="1" parent="dBIomlq2-YmWtFzMOmSG-82">
          <mxGeometry x="990" y="250" width="100" height="80" as="geometry" />
        </mxCell>
        <mxCell id="dBIomlq2-YmWtFzMOmSG-120" value="" style="edgeStyle=orthogonalEdgeStyle;rounded=0;orthogonalLoop=1;jettySize=auto;html=1;entryX=0.5;entryY=0;entryDx=0;entryDy=0;endArrow=block;endFill=1;" edge="1" parent="dBIomlq2-YmWtFzMOmSG-82" source="dBIomlq2-YmWtFzMOmSG-117" target="dBIomlq2-YmWtFzMOmSG-119">
          <mxGeometry relative="1" as="geometry">
            <mxPoint x="1040" y="250" as="targetPoint" />
          </mxGeometry>
        </mxCell>
        <mxCell id="dBIomlq2-YmWtFzMOmSG-121" value="Return null" style="rounded=1;whiteSpace=wrap;html=1;fontSize=12;glass=0;strokeWidth=1;shadow=0;" vertex="1" parent="dBIomlq2-YmWtFzMOmSG-82">
          <mxGeometry x="910" y="400" width="120" height="40" as="geometry" />
        </mxCell>
        <mxCell id="dBIomlq2-YmWtFzMOmSG-122" value="" style="edgeStyle=orthogonalEdgeStyle;rounded=0;orthogonalLoop=1;jettySize=auto;html=1;endArrow=block;endFill=1;" edge="1" parent="dBIomlq2-YmWtFzMOmSG-82" source="dBIomlq2-YmWtFzMOmSG-119" target="dBIomlq2-YmWtFzMOmSG-121">
          <mxGeometry relative="1" as="geometry">
            <mxPoint x="980" y="380.0000000000001" as="targetPoint" />
          </mxGeometry>
        </mxCell>
        <mxCell id="dBIomlq2-YmWtFzMOmSG-123" value="Success" style="edgeLabel;html=1;align=center;verticalAlign=middle;resizable=0;points=[];" vertex="1" connectable="0" parent="dBIomlq2-YmWtFzMOmSG-122">
          <mxGeometry x="0.2167" y="-1" relative="1" as="geometry">
            <mxPoint x="8" y="1" as="offset" />
          </mxGeometry>
        </mxCell>
        <mxCell id="dBIomlq2-YmWtFzMOmSG-124" value="Return error" style="rounded=1;whiteSpace=wrap;html=1;fontSize=12;glass=0;strokeWidth=1;shadow=0;" vertex="1" parent="dBIomlq2-YmWtFzMOmSG-82">
          <mxGeometry x="1050" y="400" width="120" height="40" as="geometry" />
        </mxCell>
        <mxCell id="dBIomlq2-YmWtFzMOmSG-125" style="edgeStyle=orthogonalEdgeStyle;rounded=0;orthogonalLoop=1;jettySize=auto;html=1;exitX=0.5;exitY=1;exitDx=0;exitDy=0;endArrow=block;endFill=1;" edge="1" parent="dBIomlq2-YmWtFzMOmSG-82" source="dBIomlq2-YmWtFzMOmSG-119" target="dBIomlq2-YmWtFzMOmSG-124">
          <mxGeometry relative="1" as="geometry" />
        </mxCell>
        <mxCell id="dBIomlq2-YmWtFzMOmSG-126" value="Error" style="edgeLabel;html=1;align=center;verticalAlign=middle;resizable=0;points=[];" vertex="1" connectable="0" parent="dBIomlq2-YmWtFzMOmSG-125">
          <mxGeometry x="-0.549" y="2" relative="1" as="geometry">
            <mxPoint x="31" y="4" as="offset" />
          </mxGeometry>
        </mxCell>
        <mxCell id="dBIomlq2-YmWtFzMOmSG-127" value="Delete tag" style="rounded=1;whiteSpace=wrap;html=1;fontSize=12;glass=0;strokeWidth=1;shadow=0;" vertex="1" parent="dBIomlq2-YmWtFzMOmSG-82">
          <mxGeometry x="1260" y="45" width="120" height="40" as="geometry" />
        </mxCell>
        <mxCell id="dBIomlq2-YmWtFzMOmSG-128" value="Access database and delete tag" style="whiteSpace=wrap;html=1;rounded=1;glass=0;strokeWidth=1;shadow=0;" vertex="1" parent="dBIomlq2-YmWtFzMOmSG-82">
          <mxGeometry x="1260" y="150" width="120" height="40" as="geometry" />
        </mxCell>
        <mxCell id="dBIomlq2-YmWtFzMOmSG-129" style="edgeStyle=orthogonalEdgeStyle;rounded=0;orthogonalLoop=1;jettySize=auto;html=1;" edge="1" parent="dBIomlq2-YmWtFzMOmSG-82" source="dBIomlq2-YmWtFzMOmSG-127" target="dBIomlq2-YmWtFzMOmSG-128">
          <mxGeometry relative="1" as="geometry" />
        </mxCell>
        <mxCell id="dBIomlq2-YmWtFzMOmSG-130" value="" style="rhombus;whiteSpace=wrap;html=1;shadow=0;fontFamily=Helvetica;fontSize=12;align=center;strokeWidth=1;spacing=6;spacingTop=-4;" vertex="1" parent="dBIomlq2-YmWtFzMOmSG-82">
          <mxGeometry x="1270" y="250" width="100" height="80" as="geometry" />
        </mxCell>
        <mxCell id="dBIomlq2-YmWtFzMOmSG-131" value="" style="edgeStyle=orthogonalEdgeStyle;rounded=0;orthogonalLoop=1;jettySize=auto;html=1;entryX=0.5;entryY=0;entryDx=0;entryDy=0;endArrow=block;endFill=1;" edge="1" parent="dBIomlq2-YmWtFzMOmSG-82" source="dBIomlq2-YmWtFzMOmSG-128" target="dBIomlq2-YmWtFzMOmSG-130">
          <mxGeometry relative="1" as="geometry">
            <mxPoint x="1320" y="250" as="targetPoint" />
          </mxGeometry>
        </mxCell>
        <mxCell id="dBIomlq2-YmWtFzMOmSG-132" value="Return null" style="rounded=1;whiteSpace=wrap;html=1;fontSize=12;glass=0;strokeWidth=1;shadow=0;" vertex="1" parent="dBIomlq2-YmWtFzMOmSG-82">
          <mxGeometry x="1190" y="400" width="120" height="40" as="geometry" />
        </mxCell>
        <mxCell id="dBIomlq2-YmWtFzMOmSG-133" value="" style="edgeStyle=orthogonalEdgeStyle;rounded=0;orthogonalLoop=1;jettySize=auto;html=1;endArrow=block;endFill=1;" edge="1" parent="dBIomlq2-YmWtFzMOmSG-82" source="dBIomlq2-YmWtFzMOmSG-130" target="dBIomlq2-YmWtFzMOmSG-132">
          <mxGeometry relative="1" as="geometry">
            <mxPoint x="1260" y="380.0000000000001" as="targetPoint" />
          </mxGeometry>
        </mxCell>
        <mxCell id="dBIomlq2-YmWtFzMOmSG-134" value="Success" style="edgeLabel;html=1;align=center;verticalAlign=middle;resizable=0;points=[];" vertex="1" connectable="0" parent="dBIomlq2-YmWtFzMOmSG-133">
          <mxGeometry x="0.2167" y="-1" relative="1" as="geometry">
            <mxPoint x="8" y="1" as="offset" />
          </mxGeometry>
        </mxCell>
        <mxCell id="dBIomlq2-YmWtFzMOmSG-135" value="Return error" style="rounded=1;whiteSpace=wrap;html=1;fontSize=12;glass=0;strokeWidth=1;shadow=0;" vertex="1" parent="dBIomlq2-YmWtFzMOmSG-82">
          <mxGeometry x="1330" y="400" width="120" height="40" as="geometry" />
        </mxCell>
        <mxCell id="dBIomlq2-YmWtFzMOmSG-136" style="edgeStyle=orthogonalEdgeStyle;rounded=0;orthogonalLoop=1;jettySize=auto;html=1;exitX=0.5;exitY=1;exitDx=0;exitDy=0;endArrow=block;endFill=1;" edge="1" parent="dBIomlq2-YmWtFzMOmSG-82" source="dBIomlq2-YmWtFzMOmSG-130" target="dBIomlq2-YmWtFzMOmSG-135">
          <mxGeometry relative="1" as="geometry" />
        </mxCell>
        <mxCell id="dBIomlq2-YmWtFzMOmSG-137" value="Error" style="edgeLabel;html=1;align=center;verticalAlign=middle;resizable=0;points=[];" vertex="1" connectable="0" parent="dBIomlq2-YmWtFzMOmSG-136">
          <mxGeometry x="-0.549" y="2" relative="1" as="geometry">
            <mxPoint x="31" y="4" as="offset" />
          </mxGeometry>
        </mxCell>
        <mxCell id="dBIomlq2-YmWtFzMOmSG-138" value="Tags Controller" style="swimlane;startSize=20;" vertex="1" parent="WIyWlLk6GJQsqaUBKTNV-1">
          <mxGeometry x="1080" y="-270" width="1650" height="730" as="geometry" />
        </mxCell>
        <mxCell id="dBIomlq2-YmWtFzMOmSG-196" value="Get tags" style="rounded=1;whiteSpace=wrap;html=1;fontSize=12;glass=0;strokeWidth=1;shadow=0;" vertex="1" parent="dBIomlq2-YmWtFzMOmSG-138">
          <mxGeometry x="240" y="50" width="120" height="40" as="geometry" />
        </mxCell>
        <mxCell id="dBIomlq2-YmWtFzMOmSG-197" value="Get tags from redis" style="whiteSpace=wrap;html=1;rounded=1;glass=0;strokeWidth=1;shadow=0;" vertex="1" parent="dBIomlq2-YmWtFzMOmSG-138">
          <mxGeometry x="240" y="155" width="120" height="40" as="geometry" />
        </mxCell>
        <mxCell id="dBIomlq2-YmWtFzMOmSG-198" style="edgeStyle=orthogonalEdgeStyle;rounded=0;orthogonalLoop=1;jettySize=auto;html=1;" edge="1" parent="dBIomlq2-YmWtFzMOmSG-138" source="dBIomlq2-YmWtFzMOmSG-196" target="dBIomlq2-YmWtFzMOmSG-197">
          <mxGeometry relative="1" as="geometry" />
        </mxCell>
        <mxCell id="dBIomlq2-YmWtFzMOmSG-199" value="has data?" style="rhombus;whiteSpace=wrap;html=1;shadow=0;fontFamily=Helvetica;fontSize=12;align=center;strokeWidth=1;spacing=6;spacingTop=-4;" vertex="1" parent="dBIomlq2-YmWtFzMOmSG-138">
          <mxGeometry x="250" y="255" width="100" height="80" as="geometry" />
        </mxCell>
        <mxCell id="dBIomlq2-YmWtFzMOmSG-200" value="" style="edgeStyle=orthogonalEdgeStyle;rounded=0;orthogonalLoop=1;jettySize=auto;html=1;entryX=0.5;entryY=0;entryDx=0;entryDy=0;endArrow=block;endFill=1;" edge="1" parent="dBIomlq2-YmWtFzMOmSG-138" source="dBIomlq2-YmWtFzMOmSG-197" target="dBIomlq2-YmWtFzMOmSG-199">
          <mxGeometry relative="1" as="geometry">
            <mxPoint x="160" y="255" as="targetPoint" />
          </mxGeometry>
        </mxCell>
        <mxCell id="dBIomlq2-YmWtFzMOmSG-211" style="edgeStyle=orthogonalEdgeStyle;rounded=0;orthogonalLoop=1;jettySize=auto;html=1;" edge="1" parent="dBIomlq2-YmWtFzMOmSG-138" source="dBIomlq2-YmWtFzMOmSG-204" target="dBIomlq2-YmWtFzMOmSG-210">
          <mxGeometry relative="1" as="geometry" />
        </mxCell>
        <mxCell id="dBIomlq2-YmWtFzMOmSG-204" value="Get tags from repository" style="rounded=1;whiteSpace=wrap;html=1;fontSize=12;glass=0;strokeWidth=1;shadow=0;" vertex="1" parent="dBIomlq2-YmWtFzMOmSG-138">
          <mxGeometry x="240" y="370" width="120" height="40" as="geometry" />
        </mxCell>
        <mxCell id="dBIomlq2-YmWtFzMOmSG-205" style="edgeStyle=orthogonalEdgeStyle;rounded=0;orthogonalLoop=1;jettySize=auto;html=1;endArrow=block;endFill=1;" edge="1" parent="dBIomlq2-YmWtFzMOmSG-138" source="dBIomlq2-YmWtFzMOmSG-199" target="dBIomlq2-YmWtFzMOmSG-204">
          <mxGeometry relative="1" as="geometry">
            <mxPoint x="-10" y="390" as="sourcePoint" />
          </mxGeometry>
        </mxCell>
        <mxCell id="dBIomlq2-YmWtFzMOmSG-206" value="Fail" style="edgeLabel;html=1;align=center;verticalAlign=middle;resizable=0;points=[];" vertex="1" connectable="0" parent="dBIomlq2-YmWtFzMOmSG-205">
          <mxGeometry x="-0.549" y="2" relative="1" as="geometry">
            <mxPoint x="20" y="3" as="offset" />
          </mxGeometry>
        </mxCell>
        <mxCell id="dBIomlq2-YmWtFzMOmSG-212" style="edgeStyle=orthogonalEdgeStyle;rounded=0;orthogonalLoop=1;jettySize=auto;html=1;entryX=0.5;entryY=0;entryDx=0;entryDy=0;" edge="1" parent="dBIomlq2-YmWtFzMOmSG-138" source="dBIomlq2-YmWtFzMOmSG-209" target="dBIomlq2-YmWtFzMOmSG-213">
          <mxGeometry relative="1" as="geometry">
            <mxPoint x="160" y="645" as="targetPoint" />
          </mxGeometry>
        </mxCell>
        <mxCell id="dBIomlq2-YmWtFzMOmSG-209" value="Return data" style="rounded=1;whiteSpace=wrap;html=1;fontSize=12;glass=0;strokeWidth=1;shadow=0;" vertex="1" parent="dBIomlq2-YmWtFzMOmSG-138">
          <mxGeometry x="110" y="500" width="120" height="40" as="geometry" />
        </mxCell>
        <mxCell id="dBIomlq2-YmWtFzMOmSG-214" style="edgeStyle=orthogonalEdgeStyle;rounded=0;orthogonalLoop=1;jettySize=auto;html=1;entryX=0.5;entryY=0;entryDx=0;entryDy=0;" edge="1" parent="dBIomlq2-YmWtFzMOmSG-138" source="dBIomlq2-YmWtFzMOmSG-210" target="dBIomlq2-YmWtFzMOmSG-209">
          <mxGeometry relative="1" as="geometry" />
        </mxCell>
        <mxCell id="dBIomlq2-YmWtFzMOmSG-218" value="Success" style="edgeLabel;html=1;align=center;verticalAlign=middle;resizable=0;points=[];" vertex="1" connectable="0" parent="dBIomlq2-YmWtFzMOmSG-214">
          <mxGeometry x="-0.4571" relative="1" as="geometry">
            <mxPoint as="offset" />
          </mxGeometry>
        </mxCell>
        <mxCell id="dBIomlq2-YmWtFzMOmSG-216" style="edgeStyle=orthogonalEdgeStyle;rounded=0;orthogonalLoop=1;jettySize=auto;html=1;entryX=0.5;entryY=0;entryDx=0;entryDy=0;" edge="1" parent="dBIomlq2-YmWtFzMOmSG-138" source="dBIomlq2-YmWtFzMOmSG-210" target="dBIomlq2-YmWtFzMOmSG-215">
          <mxGeometry relative="1" as="geometry" />
        </mxCell>
        <mxCell id="dBIomlq2-YmWtFzMOmSG-217" value="Fail" style="edgeLabel;html=1;align=center;verticalAlign=middle;resizable=0;points=[];" vertex="1" connectable="0" parent="dBIomlq2-YmWtFzMOmSG-216">
          <mxGeometry x="0.1559" y="-1" relative="1" as="geometry">
            <mxPoint as="offset" />
          </mxGeometry>
        </mxCell>
        <mxCell id="dBIomlq2-YmWtFzMOmSG-210" value="" style="rhombus;whiteSpace=wrap;html=1;shadow=0;fontFamily=Helvetica;fontSize=12;align=center;strokeWidth=1;spacing=6;spacingTop=-4;" vertex="1" parent="dBIomlq2-YmWtFzMOmSG-138">
          <mxGeometry x="270" y="431.25" width="60" height="57.5" as="geometry" />
        </mxCell>
        <mxCell id="dBIomlq2-YmWtFzMOmSG-213" value="Set tags in redis" style="rounded=1;whiteSpace=wrap;html=1;fontSize=12;glass=0;strokeWidth=1;shadow=0;" vertex="1" parent="dBIomlq2-YmWtFzMOmSG-138">
          <mxGeometry x="110" y="625" width="120" height="40" as="geometry" />
        </mxCell>
        <mxCell id="dBIomlq2-YmWtFzMOmSG-215" value="Return error" style="rounded=1;whiteSpace=wrap;html=1;fontSize=12;glass=0;strokeWidth=1;shadow=0;" vertex="1" parent="dBIomlq2-YmWtFzMOmSG-138">
          <mxGeometry x="240" y="625" width="120" height="40" as="geometry" />
        </mxCell>
        <mxCell id="dBIomlq2-YmWtFzMOmSG-201" value="Return data" style="rounded=1;whiteSpace=wrap;html=1;fontSize=12;glass=0;strokeWidth=1;shadow=0;" vertex="1" parent="dBIomlq2-YmWtFzMOmSG-138">
          <mxGeometry x="110" y="370" width="120" height="40" as="geometry" />
        </mxCell>
        <mxCell id="dBIomlq2-YmWtFzMOmSG-202" value="" style="edgeStyle=orthogonalEdgeStyle;rounded=0;orthogonalLoop=1;jettySize=auto;html=1;endArrow=block;endFill=1;" edge="1" parent="dBIomlq2-YmWtFzMOmSG-138" source="dBIomlq2-YmWtFzMOmSG-199" target="dBIomlq2-YmWtFzMOmSG-201">
          <mxGeometry relative="1" as="geometry">
            <mxPoint x="230" y="375.0000000000001" as="targetPoint" />
          </mxGeometry>
        </mxCell>
        <mxCell id="dBIomlq2-YmWtFzMOmSG-203" value="Success" style="edgeLabel;html=1;align=center;verticalAlign=middle;resizable=0;points=[];" vertex="1" connectable="0" parent="dBIomlq2-YmWtFzMOmSG-202">
          <mxGeometry x="0.2167" y="-1" relative="1" as="geometry">
            <mxPoint x="8" y="1" as="offset" />
          </mxGeometry>
        </mxCell>
        <mxCell id="dBIomlq2-YmWtFzMOmSG-231" value="Find tag" style="rounded=1;whiteSpace=wrap;html=1;fontSize=12;glass=0;strokeWidth=1;shadow=0;" vertex="1" parent="dBIomlq2-YmWtFzMOmSG-138">
          <mxGeometry x="550" y="50" width="120" height="40" as="geometry" />
        </mxCell>
        <mxCell id="dBIomlq2-YmWtFzMOmSG-232" value="Get tag from redis" style="whiteSpace=wrap;html=1;rounded=1;glass=0;strokeWidth=1;shadow=0;" vertex="1" parent="dBIomlq2-YmWtFzMOmSG-138">
          <mxGeometry x="550" y="155" width="120" height="40" as="geometry" />
        </mxCell>
        <mxCell id="dBIomlq2-YmWtFzMOmSG-233" style="edgeStyle=orthogonalEdgeStyle;rounded=0;orthogonalLoop=1;jettySize=auto;html=1;" edge="1" parent="dBIomlq2-YmWtFzMOmSG-138" source="dBIomlq2-YmWtFzMOmSG-231" target="dBIomlq2-YmWtFzMOmSG-232">
          <mxGeometry relative="1" as="geometry" />
        </mxCell>
        <mxCell id="dBIomlq2-YmWtFzMOmSG-234" value="has data?" style="rhombus;whiteSpace=wrap;html=1;shadow=0;fontFamily=Helvetica;fontSize=12;align=center;strokeWidth=1;spacing=6;spacingTop=-4;" vertex="1" parent="dBIomlq2-YmWtFzMOmSG-138">
          <mxGeometry x="560" y="255" width="100" height="80" as="geometry" />
        </mxCell>
        <mxCell id="dBIomlq2-YmWtFzMOmSG-235" value="" style="edgeStyle=orthogonalEdgeStyle;rounded=0;orthogonalLoop=1;jettySize=auto;html=1;entryX=0.5;entryY=0;entryDx=0;entryDy=0;endArrow=block;endFill=1;" edge="1" parent="dBIomlq2-YmWtFzMOmSG-138" source="dBIomlq2-YmWtFzMOmSG-232" target="dBIomlq2-YmWtFzMOmSG-234">
          <mxGeometry relative="1" as="geometry">
            <mxPoint x="470" y="255" as="targetPoint" />
          </mxGeometry>
        </mxCell>
        <mxCell id="dBIomlq2-YmWtFzMOmSG-237" value="Get tag from repository" style="rounded=1;whiteSpace=wrap;html=1;fontSize=12;glass=0;strokeWidth=1;shadow=0;" vertex="1" parent="dBIomlq2-YmWtFzMOmSG-138">
          <mxGeometry x="550" y="370" width="120" height="40" as="geometry" />
        </mxCell>
        <mxCell id="dBIomlq2-YmWtFzMOmSG-238" style="edgeStyle=orthogonalEdgeStyle;rounded=0;orthogonalLoop=1;jettySize=auto;html=1;endArrow=block;endFill=1;" edge="1" parent="dBIomlq2-YmWtFzMOmSG-138" source="dBIomlq2-YmWtFzMOmSG-234" target="dBIomlq2-YmWtFzMOmSG-237">
          <mxGeometry relative="1" as="geometry">
            <mxPoint x="300" y="390" as="sourcePoint" />
          </mxGeometry>
        </mxCell>
        <mxCell id="dBIomlq2-YmWtFzMOmSG-239" value="Fail" style="edgeLabel;html=1;align=center;verticalAlign=middle;resizable=0;points=[];" vertex="1" connectable="0" parent="dBIomlq2-YmWtFzMOmSG-238">
          <mxGeometry x="-0.549" y="2" relative="1" as="geometry">
            <mxPoint x="20" y="3" as="offset" />
          </mxGeometry>
        </mxCell>
        <mxCell id="dBIomlq2-YmWtFzMOmSG-241" value="Return data" style="rounded=1;whiteSpace=wrap;html=1;fontSize=12;glass=0;strokeWidth=1;shadow=0;" vertex="1" parent="dBIomlq2-YmWtFzMOmSG-138">
          <mxGeometry x="420" y="500" width="120" height="40" as="geometry" />
        </mxCell>
        <mxCell id="dBIomlq2-YmWtFzMOmSG-242" style="edgeStyle=orthogonalEdgeStyle;rounded=0;orthogonalLoop=1;jettySize=auto;html=1;entryX=0.5;entryY=0;entryDx=0;entryDy=0;" edge="1" parent="dBIomlq2-YmWtFzMOmSG-138" source="dBIomlq2-YmWtFzMOmSG-246" target="dBIomlq2-YmWtFzMOmSG-241">
          <mxGeometry relative="1" as="geometry" />
        </mxCell>
        <mxCell id="dBIomlq2-YmWtFzMOmSG-243" value="Success" style="edgeLabel;html=1;align=center;verticalAlign=middle;resizable=0;points=[];" vertex="1" connectable="0" parent="dBIomlq2-YmWtFzMOmSG-242">
          <mxGeometry x="-0.4571" relative="1" as="geometry">
            <mxPoint as="offset" />
          </mxGeometry>
        </mxCell>
        <mxCell id="dBIomlq2-YmWtFzMOmSG-246" value="" style="rhombus;whiteSpace=wrap;html=1;shadow=0;fontFamily=Helvetica;fontSize=12;align=center;strokeWidth=1;spacing=6;spacingTop=-4;" vertex="1" parent="dBIomlq2-YmWtFzMOmSG-138">
          <mxGeometry x="580" y="431.25" width="60" height="57.5" as="geometry" />
        </mxCell>
        <mxCell id="dBIomlq2-YmWtFzMOmSG-236" style="edgeStyle=orthogonalEdgeStyle;rounded=0;orthogonalLoop=1;jettySize=auto;html=1;" edge="1" parent="dBIomlq2-YmWtFzMOmSG-138" source="dBIomlq2-YmWtFzMOmSG-237" target="dBIomlq2-YmWtFzMOmSG-246">
          <mxGeometry relative="1" as="geometry" />
        </mxCell>
        <mxCell id="dBIomlq2-YmWtFzMOmSG-247" value="Set tag in redis" style="rounded=1;whiteSpace=wrap;html=1;fontSize=12;glass=0;strokeWidth=1;shadow=0;" vertex="1" parent="dBIomlq2-YmWtFzMOmSG-138">
          <mxGeometry x="420" y="625" width="120" height="40" as="geometry" />
        </mxCell>
        <mxCell id="dBIomlq2-YmWtFzMOmSG-240" style="edgeStyle=orthogonalEdgeStyle;rounded=0;orthogonalLoop=1;jettySize=auto;html=1;entryX=0.5;entryY=0;entryDx=0;entryDy=0;" edge="1" parent="dBIomlq2-YmWtFzMOmSG-138" source="dBIomlq2-YmWtFzMOmSG-241" target="dBIomlq2-YmWtFzMOmSG-247">
          <mxGeometry relative="1" as="geometry">
            <mxPoint x="470" y="645" as="targetPoint" />
          </mxGeometry>
        </mxCell>
        <mxCell id="dBIomlq2-YmWtFzMOmSG-248" value="Return error" style="rounded=1;whiteSpace=wrap;html=1;fontSize=12;glass=0;strokeWidth=1;shadow=0;" vertex="1" parent="dBIomlq2-YmWtFzMOmSG-138">
          <mxGeometry x="550" y="625" width="120" height="40" as="geometry" />
        </mxCell>
        <mxCell id="dBIomlq2-YmWtFzMOmSG-244" style="edgeStyle=orthogonalEdgeStyle;rounded=0;orthogonalLoop=1;jettySize=auto;html=1;entryX=0.5;entryY=0;entryDx=0;entryDy=0;" edge="1" parent="dBIomlq2-YmWtFzMOmSG-138" source="dBIomlq2-YmWtFzMOmSG-246" target="dBIomlq2-YmWtFzMOmSG-248">
          <mxGeometry relative="1" as="geometry" />
        </mxCell>
        <mxCell id="dBIomlq2-YmWtFzMOmSG-245" value="Fail" style="edgeLabel;html=1;align=center;verticalAlign=middle;resizable=0;points=[];" vertex="1" connectable="0" parent="dBIomlq2-YmWtFzMOmSG-244">
          <mxGeometry x="0.1559" y="-1" relative="1" as="geometry">
            <mxPoint as="offset" />
          </mxGeometry>
        </mxCell>
        <mxCell id="dBIomlq2-YmWtFzMOmSG-249" value="Return data" style="rounded=1;whiteSpace=wrap;html=1;fontSize=12;glass=0;strokeWidth=1;shadow=0;" vertex="1" parent="dBIomlq2-YmWtFzMOmSG-138">
          <mxGeometry x="420" y="370" width="120" height="40" as="geometry" />
        </mxCell>
        <mxCell id="dBIomlq2-YmWtFzMOmSG-250" value="" style="edgeStyle=orthogonalEdgeStyle;rounded=0;orthogonalLoop=1;jettySize=auto;html=1;endArrow=block;endFill=1;" edge="1" parent="dBIomlq2-YmWtFzMOmSG-138" source="dBIomlq2-YmWtFzMOmSG-234" target="dBIomlq2-YmWtFzMOmSG-249">
          <mxGeometry relative="1" as="geometry">
            <mxPoint x="540" y="375.0000000000001" as="targetPoint" />
          </mxGeometry>
        </mxCell>
        <mxCell id="dBIomlq2-YmWtFzMOmSG-251" value="Success" style="edgeLabel;html=1;align=center;verticalAlign=middle;resizable=0;points=[];" vertex="1" connectable="0" parent="dBIomlq2-YmWtFzMOmSG-250">
          <mxGeometry x="0.2167" y="-1" relative="1" as="geometry">
            <mxPoint x="8" y="1" as="offset" />
          </mxGeometry>
        </mxCell>
        <mxCell id="dBIomlq2-YmWtFzMOmSG-252" value="Create tag" style="rounded=1;whiteSpace=wrap;html=1;fontSize=12;glass=0;strokeWidth=1;shadow=0;" vertex="1" parent="dBIomlq2-YmWtFzMOmSG-138">
          <mxGeometry x="880" y="50" width="120" height="40" as="geometry" />
        </mxCell>
        <mxCell id="dBIomlq2-YmWtFzMOmSG-254" style="edgeStyle=orthogonalEdgeStyle;rounded=0;orthogonalLoop=1;jettySize=auto;html=1;entryX=0.5;entryY=0;entryDx=0;entryDy=0;" edge="1" parent="dBIomlq2-YmWtFzMOmSG-138" source="dBIomlq2-YmWtFzMOmSG-252" target="dBIomlq2-YmWtFzMOmSG-255">
          <mxGeometry relative="1" as="geometry">
            <mxPoint x="940" y="155" as="targetPoint" />
          </mxGeometry>
        </mxCell>
        <mxCell id="dBIomlq2-YmWtFzMOmSG-255" value="validate data" style="rhombus;whiteSpace=wrap;html=1;shadow=0;fontFamily=Helvetica;fontSize=12;align=center;strokeWidth=1;spacing=6;spacingTop=-4;" vertex="1" parent="dBIomlq2-YmWtFzMOmSG-138">
          <mxGeometry x="890" y="135" width="100" height="80" as="geometry" />
        </mxCell>
        <mxCell id="dBIomlq2-YmWtFzMOmSG-257" value="Create tag from repository" style="rounded=1;whiteSpace=wrap;html=1;fontSize=12;glass=0;strokeWidth=1;shadow=0;" vertex="1" parent="dBIomlq2-YmWtFzMOmSG-138">
          <mxGeometry x="880" y="275" width="120" height="40" as="geometry" />
        </mxCell>
        <mxCell id="dBIomlq2-YmWtFzMOmSG-258" style="edgeStyle=orthogonalEdgeStyle;rounded=0;orthogonalLoop=1;jettySize=auto;html=1;endArrow=block;endFill=1;" edge="1" parent="dBIomlq2-YmWtFzMOmSG-138" source="dBIomlq2-YmWtFzMOmSG-255" target="dBIomlq2-YmWtFzMOmSG-257">
          <mxGeometry relative="1" as="geometry">
            <mxPoint x="630" y="390" as="sourcePoint" />
          </mxGeometry>
        </mxCell>
        <mxCell id="dBIomlq2-YmWtFzMOmSG-259" value="Success" style="edgeLabel;html=1;align=center;verticalAlign=middle;resizable=0;points=[];" vertex="1" connectable="0" parent="dBIomlq2-YmWtFzMOmSG-258">
          <mxGeometry x="-0.549" y="2" relative="1" as="geometry">
            <mxPoint x="20" y="3" as="offset" />
          </mxGeometry>
        </mxCell>
        <mxCell id="dBIomlq2-YmWtFzMOmSG-260" value="Return data" style="rounded=1;whiteSpace=wrap;html=1;fontSize=12;glass=0;strokeWidth=1;shadow=0;" vertex="1" parent="dBIomlq2-YmWtFzMOmSG-138">
          <mxGeometry x="750" y="440" width="120" height="40" as="geometry" />
        </mxCell>
        <mxCell id="dBIomlq2-YmWtFzMOmSG-261" style="edgeStyle=orthogonalEdgeStyle;rounded=0;orthogonalLoop=1;jettySize=auto;html=1;entryX=0.5;entryY=0;entryDx=0;entryDy=0;" edge="1" parent="dBIomlq2-YmWtFzMOmSG-138" source="dBIomlq2-YmWtFzMOmSG-263" target="dBIomlq2-YmWtFzMOmSG-260">
          <mxGeometry relative="1" as="geometry" />
        </mxCell>
        <mxCell id="dBIomlq2-YmWtFzMOmSG-262" value="Success" style="edgeLabel;html=1;align=center;verticalAlign=middle;resizable=0;points=[];" vertex="1" connectable="0" parent="dBIomlq2-YmWtFzMOmSG-261">
          <mxGeometry x="-0.4571" relative="1" as="geometry">
            <mxPoint as="offset" />
          </mxGeometry>
        </mxCell>
        <mxCell id="dBIomlq2-YmWtFzMOmSG-263" value="" style="rhombus;whiteSpace=wrap;html=1;shadow=0;fontFamily=Helvetica;fontSize=12;align=center;strokeWidth=1;spacing=6;spacingTop=-4;" vertex="1" parent="dBIomlq2-YmWtFzMOmSG-138">
          <mxGeometry x="910" y="361.25" width="60" height="57.5" as="geometry" />
        </mxCell>
        <mxCell id="dBIomlq2-YmWtFzMOmSG-264" style="edgeStyle=orthogonalEdgeStyle;rounded=0;orthogonalLoop=1;jettySize=auto;html=1;" edge="1" parent="dBIomlq2-YmWtFzMOmSG-138" source="dBIomlq2-YmWtFzMOmSG-257" target="dBIomlq2-YmWtFzMOmSG-263">
          <mxGeometry relative="1" as="geometry" />
        </mxCell>
        <mxCell id="dBIomlq2-YmWtFzMOmSG-265" value="Delete tags from redis" style="rounded=1;whiteSpace=wrap;html=1;fontSize=12;glass=0;strokeWidth=1;shadow=0;" vertex="1" parent="dBIomlq2-YmWtFzMOmSG-138">
          <mxGeometry x="750" y="520" width="120" height="40" as="geometry" />
        </mxCell>
        <mxCell id="dBIomlq2-YmWtFzMOmSG-266" style="edgeStyle=orthogonalEdgeStyle;rounded=0;orthogonalLoop=1;jettySize=auto;html=1;entryX=0.5;entryY=0;entryDx=0;entryDy=0;" edge="1" parent="dBIomlq2-YmWtFzMOmSG-138" source="dBIomlq2-YmWtFzMOmSG-260" target="dBIomlq2-YmWtFzMOmSG-265">
          <mxGeometry relative="1" as="geometry">
            <mxPoint x="800" y="645" as="targetPoint" />
          </mxGeometry>
        </mxCell>
        <mxCell id="dBIomlq2-YmWtFzMOmSG-267" value="Return error" style="rounded=1;whiteSpace=wrap;html=1;fontSize=12;glass=0;strokeWidth=1;shadow=0;" vertex="1" parent="dBIomlq2-YmWtFzMOmSG-138">
          <mxGeometry x="880" y="520" width="120" height="40" as="geometry" />
        </mxCell>
        <mxCell id="dBIomlq2-YmWtFzMOmSG-268" style="edgeStyle=orthogonalEdgeStyle;rounded=0;orthogonalLoop=1;jettySize=auto;html=1;entryX=0.5;entryY=0;entryDx=0;entryDy=0;" edge="1" parent="dBIomlq2-YmWtFzMOmSG-138" source="dBIomlq2-YmWtFzMOmSG-263" target="dBIomlq2-YmWtFzMOmSG-267">
          <mxGeometry relative="1" as="geometry" />
        </mxCell>
        <mxCell id="dBIomlq2-YmWtFzMOmSG-269" value="Fail" style="edgeLabel;html=1;align=center;verticalAlign=middle;resizable=0;points=[];" vertex="1" connectable="0" parent="dBIomlq2-YmWtFzMOmSG-268">
          <mxGeometry x="0.1559" y="-1" relative="1" as="geometry">
            <mxPoint as="offset" />
          </mxGeometry>
        </mxCell>
        <mxCell id="dBIomlq2-YmWtFzMOmSG-270" value="Return error" style="rounded=1;whiteSpace=wrap;html=1;fontSize=12;glass=0;strokeWidth=1;shadow=0;" vertex="1" parent="dBIomlq2-YmWtFzMOmSG-138">
          <mxGeometry x="750" y="275" width="120" height="40" as="geometry" />
        </mxCell>
        <mxCell id="dBIomlq2-YmWtFzMOmSG-271" value="" style="edgeStyle=orthogonalEdgeStyle;rounded=0;orthogonalLoop=1;jettySize=auto;html=1;endArrow=block;endFill=1;" edge="1" parent="dBIomlq2-YmWtFzMOmSG-138" source="dBIomlq2-YmWtFzMOmSG-255" target="dBIomlq2-YmWtFzMOmSG-270">
          <mxGeometry relative="1" as="geometry">
            <mxPoint x="870" y="375.0000000000001" as="targetPoint" />
          </mxGeometry>
        </mxCell>
        <mxCell id="dBIomlq2-YmWtFzMOmSG-272" value="Fail" style="edgeLabel;html=1;align=center;verticalAlign=middle;resizable=0;points=[];" vertex="1" connectable="0" parent="dBIomlq2-YmWtFzMOmSG-271">
          <mxGeometry x="0.2167" y="-1" relative="1" as="geometry">
            <mxPoint x="8" y="1" as="offset" />
          </mxGeometry>
        </mxCell>
        <mxCell id="dBIomlq2-YmWtFzMOmSG-273" value="Update tag" style="rounded=1;whiteSpace=wrap;html=1;fontSize=12;glass=0;strokeWidth=1;shadow=0;" vertex="1" parent="dBIomlq2-YmWtFzMOmSG-138">
          <mxGeometry x="1180" y="50" width="120" height="40" as="geometry" />
        </mxCell>
        <mxCell id="dBIomlq2-YmWtFzMOmSG-274" style="edgeStyle=orthogonalEdgeStyle;rounded=0;orthogonalLoop=1;jettySize=auto;html=1;entryX=0.5;entryY=0;entryDx=0;entryDy=0;" edge="1" parent="dBIomlq2-YmWtFzMOmSG-138" source="dBIomlq2-YmWtFzMOmSG-273" target="dBIomlq2-YmWtFzMOmSG-275">
          <mxGeometry relative="1" as="geometry">
            <mxPoint x="1240" y="155" as="targetPoint" />
          </mxGeometry>
        </mxCell>
        <mxCell id="dBIomlq2-YmWtFzMOmSG-275" value="validate data" style="rhombus;whiteSpace=wrap;html=1;shadow=0;fontFamily=Helvetica;fontSize=12;align=center;strokeWidth=1;spacing=6;spacingTop=-4;" vertex="1" parent="dBIomlq2-YmWtFzMOmSG-138">
          <mxGeometry x="1190" y="135" width="100" height="80" as="geometry" />
        </mxCell>
        <mxCell id="dBIomlq2-YmWtFzMOmSG-276" value="Update tag from repository" style="rounded=1;whiteSpace=wrap;html=1;fontSize=12;glass=0;strokeWidth=1;shadow=0;" vertex="1" parent="dBIomlq2-YmWtFzMOmSG-138">
          <mxGeometry x="1180" y="275" width="120" height="40" as="geometry" />
        </mxCell>
        <mxCell id="dBIomlq2-YmWtFzMOmSG-277" style="edgeStyle=orthogonalEdgeStyle;rounded=0;orthogonalLoop=1;jettySize=auto;html=1;endArrow=block;endFill=1;" edge="1" parent="dBIomlq2-YmWtFzMOmSG-138" source="dBIomlq2-YmWtFzMOmSG-275" target="dBIomlq2-YmWtFzMOmSG-276">
          <mxGeometry relative="1" as="geometry">
            <mxPoint x="930" y="390" as="sourcePoint" />
          </mxGeometry>
        </mxCell>
        <mxCell id="dBIomlq2-YmWtFzMOmSG-278" value="Success" style="edgeLabel;html=1;align=center;verticalAlign=middle;resizable=0;points=[];" vertex="1" connectable="0" parent="dBIomlq2-YmWtFzMOmSG-277">
          <mxGeometry x="-0.549" y="2" relative="1" as="geometry">
            <mxPoint x="20" y="3" as="offset" />
          </mxGeometry>
        </mxCell>
        <mxCell id="dBIomlq2-YmWtFzMOmSG-279" value="Return data" style="rounded=1;whiteSpace=wrap;html=1;fontSize=12;glass=0;strokeWidth=1;shadow=0;" vertex="1" parent="dBIomlq2-YmWtFzMOmSG-138">
          <mxGeometry x="1050" y="440" width="120" height="40" as="geometry" />
        </mxCell>
        <mxCell id="dBIomlq2-YmWtFzMOmSG-280" style="edgeStyle=orthogonalEdgeStyle;rounded=0;orthogonalLoop=1;jettySize=auto;html=1;entryX=0.5;entryY=0;entryDx=0;entryDy=0;" edge="1" parent="dBIomlq2-YmWtFzMOmSG-138" source="dBIomlq2-YmWtFzMOmSG-282" target="dBIomlq2-YmWtFzMOmSG-279">
          <mxGeometry relative="1" as="geometry" />
        </mxCell>
        <mxCell id="dBIomlq2-YmWtFzMOmSG-281" value="Success" style="edgeLabel;html=1;align=center;verticalAlign=middle;resizable=0;points=[];" vertex="1" connectable="0" parent="dBIomlq2-YmWtFzMOmSG-280">
          <mxGeometry x="-0.4571" relative="1" as="geometry">
            <mxPoint as="offset" />
          </mxGeometry>
        </mxCell>
        <mxCell id="dBIomlq2-YmWtFzMOmSG-282" value="" style="rhombus;whiteSpace=wrap;html=1;shadow=0;fontFamily=Helvetica;fontSize=12;align=center;strokeWidth=1;spacing=6;spacingTop=-4;" vertex="1" parent="dBIomlq2-YmWtFzMOmSG-138">
          <mxGeometry x="1210" y="361.25" width="60" height="57.5" as="geometry" />
        </mxCell>
        <mxCell id="dBIomlq2-YmWtFzMOmSG-283" style="edgeStyle=orthogonalEdgeStyle;rounded=0;orthogonalLoop=1;jettySize=auto;html=1;" edge="1" parent="dBIomlq2-YmWtFzMOmSG-138" source="dBIomlq2-YmWtFzMOmSG-276" target="dBIomlq2-YmWtFzMOmSG-282">
          <mxGeometry relative="1" as="geometry" />
        </mxCell>
        <mxCell id="dBIomlq2-YmWtFzMOmSG-284" value="Delete tags and tag from redis" style="rounded=1;whiteSpace=wrap;html=1;fontSize=12;glass=0;strokeWidth=1;shadow=0;" vertex="1" parent="dBIomlq2-YmWtFzMOmSG-138">
          <mxGeometry x="1050" y="520" width="120" height="40" as="geometry" />
        </mxCell>
        <mxCell id="dBIomlq2-YmWtFzMOmSG-285" style="edgeStyle=orthogonalEdgeStyle;rounded=0;orthogonalLoop=1;jettySize=auto;html=1;entryX=0.5;entryY=0;entryDx=0;entryDy=0;" edge="1" parent="dBIomlq2-YmWtFzMOmSG-138" source="dBIomlq2-YmWtFzMOmSG-279" target="dBIomlq2-YmWtFzMOmSG-284">
          <mxGeometry relative="1" as="geometry">
            <mxPoint x="1100" y="645" as="targetPoint" />
          </mxGeometry>
        </mxCell>
        <mxCell id="dBIomlq2-YmWtFzMOmSG-286" value="Return error" style="rounded=1;whiteSpace=wrap;html=1;fontSize=12;glass=0;strokeWidth=1;shadow=0;" vertex="1" parent="dBIomlq2-YmWtFzMOmSG-138">
          <mxGeometry x="1180" y="520" width="120" height="40" as="geometry" />
        </mxCell>
        <mxCell id="dBIomlq2-YmWtFzMOmSG-287" style="edgeStyle=orthogonalEdgeStyle;rounded=0;orthogonalLoop=1;jettySize=auto;html=1;entryX=0.5;entryY=0;entryDx=0;entryDy=0;" edge="1" parent="dBIomlq2-YmWtFzMOmSG-138" source="dBIomlq2-YmWtFzMOmSG-282" target="dBIomlq2-YmWtFzMOmSG-286">
          <mxGeometry relative="1" as="geometry" />
        </mxCell>
        <mxCell id="dBIomlq2-YmWtFzMOmSG-288" value="Fail" style="edgeLabel;html=1;align=center;verticalAlign=middle;resizable=0;points=[];" vertex="1" connectable="0" parent="dBIomlq2-YmWtFzMOmSG-287">
          <mxGeometry x="0.1559" y="-1" relative="1" as="geometry">
            <mxPoint as="offset" />
          </mxGeometry>
        </mxCell>
        <mxCell id="dBIomlq2-YmWtFzMOmSG-289" value="Return error" style="rounded=1;whiteSpace=wrap;html=1;fontSize=12;glass=0;strokeWidth=1;shadow=0;" vertex="1" parent="dBIomlq2-YmWtFzMOmSG-138">
          <mxGeometry x="1050" y="275" width="120" height="40" as="geometry" />
        </mxCell>
        <mxCell id="dBIomlq2-YmWtFzMOmSG-290" value="" style="edgeStyle=orthogonalEdgeStyle;rounded=0;orthogonalLoop=1;jettySize=auto;html=1;endArrow=block;endFill=1;" edge="1" parent="dBIomlq2-YmWtFzMOmSG-138" source="dBIomlq2-YmWtFzMOmSG-275" target="dBIomlq2-YmWtFzMOmSG-289">
          <mxGeometry relative="1" as="geometry">
            <mxPoint x="1170" y="375.0000000000001" as="targetPoint" />
          </mxGeometry>
        </mxCell>
        <mxCell id="dBIomlq2-YmWtFzMOmSG-291" value="Fail" style="edgeLabel;html=1;align=center;verticalAlign=middle;resizable=0;points=[];" vertex="1" connectable="0" parent="dBIomlq2-YmWtFzMOmSG-290">
          <mxGeometry x="0.2167" y="-1" relative="1" as="geometry">
            <mxPoint x="8" y="1" as="offset" />
          </mxGeometry>
        </mxCell>
        <mxCell id="dBIomlq2-YmWtFzMOmSG-292" value="Delete tag" style="rounded=1;whiteSpace=wrap;html=1;fontSize=12;glass=0;strokeWidth=1;shadow=0;" vertex="1" parent="dBIomlq2-YmWtFzMOmSG-138">
          <mxGeometry x="1470" y="50" width="120" height="40" as="geometry" />
        </mxCell>
        <mxCell id="dBIomlq2-YmWtFzMOmSG-293" style="edgeStyle=orthogonalEdgeStyle;rounded=0;orthogonalLoop=1;jettySize=auto;html=1;entryX=0.5;entryY=0;entryDx=0;entryDy=0;" edge="1" parent="dBIomlq2-YmWtFzMOmSG-138" source="dBIomlq2-YmWtFzMOmSG-292" target="dBIomlq2-YmWtFzMOmSG-294">
          <mxGeometry relative="1" as="geometry">
            <mxPoint x="1530" y="155" as="targetPoint" />
          </mxGeometry>
        </mxCell>
        <mxCell id="dBIomlq2-YmWtFzMOmSG-294" value="validate data" style="rhombus;whiteSpace=wrap;html=1;shadow=0;fontFamily=Helvetica;fontSize=12;align=center;strokeWidth=1;spacing=6;spacingTop=-4;" vertex="1" parent="dBIomlq2-YmWtFzMOmSG-138">
          <mxGeometry x="1480" y="135" width="100" height="80" as="geometry" />
        </mxCell>
        <mxCell id="dBIomlq2-YmWtFzMOmSG-295" value="Delete tag from repository" style="rounded=1;whiteSpace=wrap;html=1;fontSize=12;glass=0;strokeWidth=1;shadow=0;" vertex="1" parent="dBIomlq2-YmWtFzMOmSG-138">
          <mxGeometry x="1470" y="275" width="120" height="40" as="geometry" />
        </mxCell>
        <mxCell id="dBIomlq2-YmWtFzMOmSG-296" style="edgeStyle=orthogonalEdgeStyle;rounded=0;orthogonalLoop=1;jettySize=auto;html=1;endArrow=block;endFill=1;" edge="1" parent="dBIomlq2-YmWtFzMOmSG-138" source="dBIomlq2-YmWtFzMOmSG-294" target="dBIomlq2-YmWtFzMOmSG-295">
          <mxGeometry relative="1" as="geometry">
            <mxPoint x="1220" y="390" as="sourcePoint" />
          </mxGeometry>
        </mxCell>
        <mxCell id="dBIomlq2-YmWtFzMOmSG-297" value="Success" style="edgeLabel;html=1;align=center;verticalAlign=middle;resizable=0;points=[];" vertex="1" connectable="0" parent="dBIomlq2-YmWtFzMOmSG-296">
          <mxGeometry x="-0.549" y="2" relative="1" as="geometry">
            <mxPoint x="20" y="3" as="offset" />
          </mxGeometry>
        </mxCell>
        <mxCell id="dBIomlq2-YmWtFzMOmSG-298" value="Return data" style="rounded=1;whiteSpace=wrap;html=1;fontSize=12;glass=0;strokeWidth=1;shadow=0;" vertex="1" parent="dBIomlq2-YmWtFzMOmSG-138">
          <mxGeometry x="1340" y="440" width="120" height="40" as="geometry" />
        </mxCell>
        <mxCell id="dBIomlq2-YmWtFzMOmSG-299" style="edgeStyle=orthogonalEdgeStyle;rounded=0;orthogonalLoop=1;jettySize=auto;html=1;entryX=0.5;entryY=0;entryDx=0;entryDy=0;" edge="1" parent="dBIomlq2-YmWtFzMOmSG-138" source="dBIomlq2-YmWtFzMOmSG-301" target="dBIomlq2-YmWtFzMOmSG-298">
          <mxGeometry relative="1" as="geometry" />
        </mxCell>
        <mxCell id="dBIomlq2-YmWtFzMOmSG-300" value="Success" style="edgeLabel;html=1;align=center;verticalAlign=middle;resizable=0;points=[];" vertex="1" connectable="0" parent="dBIomlq2-YmWtFzMOmSG-299">
          <mxGeometry x="-0.4571" relative="1" as="geometry">
            <mxPoint as="offset" />
          </mxGeometry>
        </mxCell>
        <mxCell id="dBIomlq2-YmWtFzMOmSG-301" value="" style="rhombus;whiteSpace=wrap;html=1;shadow=0;fontFamily=Helvetica;fontSize=12;align=center;strokeWidth=1;spacing=6;spacingTop=-4;" vertex="1" parent="dBIomlq2-YmWtFzMOmSG-138">
          <mxGeometry x="1500" y="361.25" width="60" height="57.5" as="geometry" />
        </mxCell>
        <mxCell id="dBIomlq2-YmWtFzMOmSG-302" style="edgeStyle=orthogonalEdgeStyle;rounded=0;orthogonalLoop=1;jettySize=auto;html=1;" edge="1" parent="dBIomlq2-YmWtFzMOmSG-138" source="dBIomlq2-YmWtFzMOmSG-295" target="dBIomlq2-YmWtFzMOmSG-301">
          <mxGeometry relative="1" as="geometry" />
        </mxCell>
        <mxCell id="dBIomlq2-YmWtFzMOmSG-303" value="Delete tags and tag from redis" style="rounded=1;whiteSpace=wrap;html=1;fontSize=12;glass=0;strokeWidth=1;shadow=0;" vertex="1" parent="dBIomlq2-YmWtFzMOmSG-138">
          <mxGeometry x="1340" y="520" width="120" height="40" as="geometry" />
        </mxCell>
        <mxCell id="dBIomlq2-YmWtFzMOmSG-304" style="edgeStyle=orthogonalEdgeStyle;rounded=0;orthogonalLoop=1;jettySize=auto;html=1;entryX=0.5;entryY=0;entryDx=0;entryDy=0;" edge="1" parent="dBIomlq2-YmWtFzMOmSG-138" source="dBIomlq2-YmWtFzMOmSG-298" target="dBIomlq2-YmWtFzMOmSG-303">
          <mxGeometry relative="1" as="geometry">
            <mxPoint x="1390" y="645" as="targetPoint" />
          </mxGeometry>
        </mxCell>
        <mxCell id="dBIomlq2-YmWtFzMOmSG-305" value="Return error" style="rounded=1;whiteSpace=wrap;html=1;fontSize=12;glass=0;strokeWidth=1;shadow=0;" vertex="1" parent="dBIomlq2-YmWtFzMOmSG-138">
          <mxGeometry x="1470" y="520" width="120" height="40" as="geometry" />
        </mxCell>
        <mxCell id="dBIomlq2-YmWtFzMOmSG-306" style="edgeStyle=orthogonalEdgeStyle;rounded=0;orthogonalLoop=1;jettySize=auto;html=1;entryX=0.5;entryY=0;entryDx=0;entryDy=0;" edge="1" parent="dBIomlq2-YmWtFzMOmSG-138" source="dBIomlq2-YmWtFzMOmSG-301" target="dBIomlq2-YmWtFzMOmSG-305">
          <mxGeometry relative="1" as="geometry" />
        </mxCell>
        <mxCell id="dBIomlq2-YmWtFzMOmSG-307" value="Fail" style="edgeLabel;html=1;align=center;verticalAlign=middle;resizable=0;points=[];" vertex="1" connectable="0" parent="dBIomlq2-YmWtFzMOmSG-306">
          <mxGeometry x="0.1559" y="-1" relative="1" as="geometry">
            <mxPoint as="offset" />
          </mxGeometry>
        </mxCell>
        <mxCell id="dBIomlq2-YmWtFzMOmSG-308" value="Return error" style="rounded=1;whiteSpace=wrap;html=1;fontSize=12;glass=0;strokeWidth=1;shadow=0;" vertex="1" parent="dBIomlq2-YmWtFzMOmSG-138">
          <mxGeometry x="1340" y="275" width="120" height="40" as="geometry" />
        </mxCell>
        <mxCell id="dBIomlq2-YmWtFzMOmSG-309" value="" style="edgeStyle=orthogonalEdgeStyle;rounded=0;orthogonalLoop=1;jettySize=auto;html=1;endArrow=block;endFill=1;" edge="1" parent="dBIomlq2-YmWtFzMOmSG-138" source="dBIomlq2-YmWtFzMOmSG-294" target="dBIomlq2-YmWtFzMOmSG-308">
          <mxGeometry relative="1" as="geometry">
            <mxPoint x="1460" y="375.0000000000001" as="targetPoint" />
          </mxGeometry>
        </mxCell>
        <mxCell id="dBIomlq2-YmWtFzMOmSG-310" value="Fail" style="edgeLabel;html=1;align=center;verticalAlign=middle;resizable=0;points=[];" vertex="1" connectable="0" parent="dBIomlq2-YmWtFzMOmSG-309">
          <mxGeometry x="0.2167" y="-1" relative="1" as="geometry">
            <mxPoint x="8" y="1" as="offset" />
          </mxGeometry>
        </mxCell>
        <mxCell id="dBIomlq2-YmWtFzMOmSG-140" value="Posts Repository" style="swimlane;startSize=20;" vertex="1" parent="WIyWlLk6GJQsqaUBKTNV-1">
          <mxGeometry x="-580" y="610" width="1480" height="480" as="geometry" />
        </mxCell>
        <mxCell id="dBIomlq2-YmWtFzMOmSG-141" value="Get posts" style="rounded=1;whiteSpace=wrap;html=1;fontSize=12;glass=0;strokeWidth=1;shadow=0;" vertex="1" parent="dBIomlq2-YmWtFzMOmSG-140">
          <mxGeometry x="100" y="45" width="120" height="40" as="geometry" />
        </mxCell>
        <mxCell id="dBIomlq2-YmWtFzMOmSG-142" value="Access database and get posts" style="whiteSpace=wrap;html=1;rounded=1;glass=0;strokeWidth=1;shadow=0;" vertex="1" parent="dBIomlq2-YmWtFzMOmSG-140">
          <mxGeometry x="100" y="150" width="120" height="40" as="geometry" />
        </mxCell>
        <mxCell id="dBIomlq2-YmWtFzMOmSG-143" style="edgeStyle=orthogonalEdgeStyle;rounded=0;orthogonalLoop=1;jettySize=auto;html=1;" edge="1" parent="dBIomlq2-YmWtFzMOmSG-140" source="dBIomlq2-YmWtFzMOmSG-141" target="dBIomlq2-YmWtFzMOmSG-142">
          <mxGeometry relative="1" as="geometry" />
        </mxCell>
        <mxCell id="dBIomlq2-YmWtFzMOmSG-144" value="" style="rhombus;whiteSpace=wrap;html=1;shadow=0;fontFamily=Helvetica;fontSize=12;align=center;strokeWidth=1;spacing=6;spacingTop=-4;" vertex="1" parent="dBIomlq2-YmWtFzMOmSG-140">
          <mxGeometry x="110" y="250" width="100" height="80" as="geometry" />
        </mxCell>
        <mxCell id="dBIomlq2-YmWtFzMOmSG-145" value="" style="edgeStyle=orthogonalEdgeStyle;rounded=0;orthogonalLoop=1;jettySize=auto;html=1;entryX=0.5;entryY=0;entryDx=0;entryDy=0;endArrow=block;endFill=1;" edge="1" parent="dBIomlq2-YmWtFzMOmSG-140" source="dBIomlq2-YmWtFzMOmSG-142" target="dBIomlq2-YmWtFzMOmSG-144">
          <mxGeometry relative="1" as="geometry">
            <mxPoint x="160" y="250" as="targetPoint" />
          </mxGeometry>
        </mxCell>
        <mxCell id="dBIomlq2-YmWtFzMOmSG-146" value="Return data" style="rounded=1;whiteSpace=wrap;html=1;fontSize=12;glass=0;strokeWidth=1;shadow=0;" vertex="1" parent="dBIomlq2-YmWtFzMOmSG-140">
          <mxGeometry x="30" y="400" width="120" height="40" as="geometry" />
        </mxCell>
        <mxCell id="dBIomlq2-YmWtFzMOmSG-147" value="" style="edgeStyle=orthogonalEdgeStyle;rounded=0;orthogonalLoop=1;jettySize=auto;html=1;endArrow=block;endFill=1;" edge="1" parent="dBIomlq2-YmWtFzMOmSG-140" source="dBIomlq2-YmWtFzMOmSG-144" target="dBIomlq2-YmWtFzMOmSG-146">
          <mxGeometry relative="1" as="geometry">
            <mxPoint x="100" y="380.0000000000001" as="targetPoint" />
          </mxGeometry>
        </mxCell>
        <mxCell id="dBIomlq2-YmWtFzMOmSG-148" value="Success" style="edgeLabel;html=1;align=center;verticalAlign=middle;resizable=0;points=[];" vertex="1" connectable="0" parent="dBIomlq2-YmWtFzMOmSG-147">
          <mxGeometry x="0.2167" y="-1" relative="1" as="geometry">
            <mxPoint x="8" y="1" as="offset" />
          </mxGeometry>
        </mxCell>
        <mxCell id="dBIomlq2-YmWtFzMOmSG-149" value="Return error" style="rounded=1;whiteSpace=wrap;html=1;fontSize=12;glass=0;strokeWidth=1;shadow=0;" vertex="1" parent="dBIomlq2-YmWtFzMOmSG-140">
          <mxGeometry x="170" y="400" width="120" height="40" as="geometry" />
        </mxCell>
        <mxCell id="dBIomlq2-YmWtFzMOmSG-150" style="edgeStyle=orthogonalEdgeStyle;rounded=0;orthogonalLoop=1;jettySize=auto;html=1;exitX=0.5;exitY=1;exitDx=0;exitDy=0;endArrow=block;endFill=1;" edge="1" parent="dBIomlq2-YmWtFzMOmSG-140" source="dBIomlq2-YmWtFzMOmSG-144" target="dBIomlq2-YmWtFzMOmSG-149">
          <mxGeometry relative="1" as="geometry" />
        </mxCell>
        <mxCell id="dBIomlq2-YmWtFzMOmSG-151" value="Error" style="edgeLabel;html=1;align=center;verticalAlign=middle;resizable=0;points=[];" vertex="1" connectable="0" parent="dBIomlq2-YmWtFzMOmSG-150">
          <mxGeometry x="-0.549" y="2" relative="1" as="geometry">
            <mxPoint x="31" y="4" as="offset" />
          </mxGeometry>
        </mxCell>
        <mxCell id="dBIomlq2-YmWtFzMOmSG-152" value="Find post" style="rounded=1;whiteSpace=wrap;html=1;fontSize=12;glass=0;strokeWidth=1;shadow=0;" vertex="1" parent="dBIomlq2-YmWtFzMOmSG-140">
          <mxGeometry x="390" y="45" width="120" height="40" as="geometry" />
        </mxCell>
        <mxCell id="dBIomlq2-YmWtFzMOmSG-153" value="Access database and get post" style="whiteSpace=wrap;html=1;rounded=1;glass=0;strokeWidth=1;shadow=0;" vertex="1" parent="dBIomlq2-YmWtFzMOmSG-140">
          <mxGeometry x="390" y="150" width="120" height="40" as="geometry" />
        </mxCell>
        <mxCell id="dBIomlq2-YmWtFzMOmSG-154" style="edgeStyle=orthogonalEdgeStyle;rounded=0;orthogonalLoop=1;jettySize=auto;html=1;" edge="1" parent="dBIomlq2-YmWtFzMOmSG-140" source="dBIomlq2-YmWtFzMOmSG-152" target="dBIomlq2-YmWtFzMOmSG-153">
          <mxGeometry relative="1" as="geometry" />
        </mxCell>
        <mxCell id="dBIomlq2-YmWtFzMOmSG-155" value="" style="rhombus;whiteSpace=wrap;html=1;shadow=0;fontFamily=Helvetica;fontSize=12;align=center;strokeWidth=1;spacing=6;spacingTop=-4;" vertex="1" parent="dBIomlq2-YmWtFzMOmSG-140">
          <mxGeometry x="400" y="250" width="100" height="80" as="geometry" />
        </mxCell>
        <mxCell id="dBIomlq2-YmWtFzMOmSG-156" value="" style="edgeStyle=orthogonalEdgeStyle;rounded=0;orthogonalLoop=1;jettySize=auto;html=1;entryX=0.5;entryY=0;entryDx=0;entryDy=0;endArrow=block;endFill=1;" edge="1" parent="dBIomlq2-YmWtFzMOmSG-140" source="dBIomlq2-YmWtFzMOmSG-153" target="dBIomlq2-YmWtFzMOmSG-155">
          <mxGeometry relative="1" as="geometry">
            <mxPoint x="450" y="250" as="targetPoint" />
          </mxGeometry>
        </mxCell>
        <mxCell id="dBIomlq2-YmWtFzMOmSG-157" value="Return data" style="rounded=1;whiteSpace=wrap;html=1;fontSize=12;glass=0;strokeWidth=1;shadow=0;" vertex="1" parent="dBIomlq2-YmWtFzMOmSG-140">
          <mxGeometry x="320" y="400" width="120" height="40" as="geometry" />
        </mxCell>
        <mxCell id="dBIomlq2-YmWtFzMOmSG-158" value="" style="edgeStyle=orthogonalEdgeStyle;rounded=0;orthogonalLoop=1;jettySize=auto;html=1;endArrow=block;endFill=1;" edge="1" parent="dBIomlq2-YmWtFzMOmSG-140" source="dBIomlq2-YmWtFzMOmSG-155" target="dBIomlq2-YmWtFzMOmSG-157">
          <mxGeometry relative="1" as="geometry">
            <mxPoint x="390" y="380.0000000000001" as="targetPoint" />
          </mxGeometry>
        </mxCell>
        <mxCell id="dBIomlq2-YmWtFzMOmSG-159" value="Success" style="edgeLabel;html=1;align=center;verticalAlign=middle;resizable=0;points=[];" vertex="1" connectable="0" parent="dBIomlq2-YmWtFzMOmSG-158">
          <mxGeometry x="0.2167" y="-1" relative="1" as="geometry">
            <mxPoint x="8" y="1" as="offset" />
          </mxGeometry>
        </mxCell>
        <mxCell id="dBIomlq2-YmWtFzMOmSG-160" value="Return error" style="rounded=1;whiteSpace=wrap;html=1;fontSize=12;glass=0;strokeWidth=1;shadow=0;" vertex="1" parent="dBIomlq2-YmWtFzMOmSG-140">
          <mxGeometry x="460" y="400" width="120" height="40" as="geometry" />
        </mxCell>
        <mxCell id="dBIomlq2-YmWtFzMOmSG-161" style="edgeStyle=orthogonalEdgeStyle;rounded=0;orthogonalLoop=1;jettySize=auto;html=1;exitX=0.5;exitY=1;exitDx=0;exitDy=0;endArrow=block;endFill=1;" edge="1" parent="dBIomlq2-YmWtFzMOmSG-140" source="dBIomlq2-YmWtFzMOmSG-155" target="dBIomlq2-YmWtFzMOmSG-160">
          <mxGeometry relative="1" as="geometry" />
        </mxCell>
        <mxCell id="dBIomlq2-YmWtFzMOmSG-162" value="Error" style="edgeLabel;html=1;align=center;verticalAlign=middle;resizable=0;points=[];" vertex="1" connectable="0" parent="dBIomlq2-YmWtFzMOmSG-161">
          <mxGeometry x="-0.549" y="2" relative="1" as="geometry">
            <mxPoint x="31" y="4" as="offset" />
          </mxGeometry>
        </mxCell>
        <mxCell id="dBIomlq2-YmWtFzMOmSG-163" value="Create post" style="rounded=1;whiteSpace=wrap;html=1;fontSize=12;glass=0;strokeWidth=1;shadow=0;" vertex="1" parent="dBIomlq2-YmWtFzMOmSG-140">
          <mxGeometry x="680" y="45" width="120" height="40" as="geometry" />
        </mxCell>
        <mxCell id="dBIomlq2-YmWtFzMOmSG-164" value="Access database and create post" style="whiteSpace=wrap;html=1;rounded=1;glass=0;strokeWidth=1;shadow=0;" vertex="1" parent="dBIomlq2-YmWtFzMOmSG-140">
          <mxGeometry x="680" y="150" width="120" height="40" as="geometry" />
        </mxCell>
        <mxCell id="dBIomlq2-YmWtFzMOmSG-165" style="edgeStyle=orthogonalEdgeStyle;rounded=0;orthogonalLoop=1;jettySize=auto;html=1;" edge="1" parent="dBIomlq2-YmWtFzMOmSG-140" source="dBIomlq2-YmWtFzMOmSG-163" target="dBIomlq2-YmWtFzMOmSG-164">
          <mxGeometry relative="1" as="geometry" />
        </mxCell>
        <mxCell id="dBIomlq2-YmWtFzMOmSG-166" value="" style="rhombus;whiteSpace=wrap;html=1;shadow=0;fontFamily=Helvetica;fontSize=12;align=center;strokeWidth=1;spacing=6;spacingTop=-4;" vertex="1" parent="dBIomlq2-YmWtFzMOmSG-140">
          <mxGeometry x="690" y="250" width="100" height="80" as="geometry" />
        </mxCell>
        <mxCell id="dBIomlq2-YmWtFzMOmSG-167" value="" style="edgeStyle=orthogonalEdgeStyle;rounded=0;orthogonalLoop=1;jettySize=auto;html=1;entryX=0.5;entryY=0;entryDx=0;entryDy=0;endArrow=block;endFill=1;" edge="1" parent="dBIomlq2-YmWtFzMOmSG-140" source="dBIomlq2-YmWtFzMOmSG-164" target="dBIomlq2-YmWtFzMOmSG-166">
          <mxGeometry relative="1" as="geometry">
            <mxPoint x="740" y="250" as="targetPoint" />
          </mxGeometry>
        </mxCell>
        <mxCell id="dBIomlq2-YmWtFzMOmSG-168" value="Return null" style="rounded=1;whiteSpace=wrap;html=1;fontSize=12;glass=0;strokeWidth=1;shadow=0;" vertex="1" parent="dBIomlq2-YmWtFzMOmSG-140">
          <mxGeometry x="610" y="400" width="120" height="40" as="geometry" />
        </mxCell>
        <mxCell id="dBIomlq2-YmWtFzMOmSG-169" value="" style="edgeStyle=orthogonalEdgeStyle;rounded=0;orthogonalLoop=1;jettySize=auto;html=1;endArrow=block;endFill=1;" edge="1" parent="dBIomlq2-YmWtFzMOmSG-140" source="dBIomlq2-YmWtFzMOmSG-166" target="dBIomlq2-YmWtFzMOmSG-168">
          <mxGeometry relative="1" as="geometry">
            <mxPoint x="680" y="380.0000000000001" as="targetPoint" />
          </mxGeometry>
        </mxCell>
        <mxCell id="dBIomlq2-YmWtFzMOmSG-170" value="Success" style="edgeLabel;html=1;align=center;verticalAlign=middle;resizable=0;points=[];" vertex="1" connectable="0" parent="dBIomlq2-YmWtFzMOmSG-169">
          <mxGeometry x="0.2167" y="-1" relative="1" as="geometry">
            <mxPoint x="8" y="1" as="offset" />
          </mxGeometry>
        </mxCell>
        <mxCell id="dBIomlq2-YmWtFzMOmSG-171" value="Return error" style="rounded=1;whiteSpace=wrap;html=1;fontSize=12;glass=0;strokeWidth=1;shadow=0;" vertex="1" parent="dBIomlq2-YmWtFzMOmSG-140">
          <mxGeometry x="750" y="400" width="120" height="40" as="geometry" />
        </mxCell>
        <mxCell id="dBIomlq2-YmWtFzMOmSG-172" style="edgeStyle=orthogonalEdgeStyle;rounded=0;orthogonalLoop=1;jettySize=auto;html=1;exitX=0.5;exitY=1;exitDx=0;exitDy=0;endArrow=block;endFill=1;" edge="1" parent="dBIomlq2-YmWtFzMOmSG-140" source="dBIomlq2-YmWtFzMOmSG-166" target="dBIomlq2-YmWtFzMOmSG-171">
          <mxGeometry relative="1" as="geometry" />
        </mxCell>
        <mxCell id="dBIomlq2-YmWtFzMOmSG-173" value="Error" style="edgeLabel;html=1;align=center;verticalAlign=middle;resizable=0;points=[];" vertex="1" connectable="0" parent="dBIomlq2-YmWtFzMOmSG-172">
          <mxGeometry x="-0.549" y="2" relative="1" as="geometry">
            <mxPoint x="31" y="4" as="offset" />
          </mxGeometry>
        </mxCell>
        <mxCell id="dBIomlq2-YmWtFzMOmSG-174" value="Update post" style="rounded=1;whiteSpace=wrap;html=1;fontSize=12;glass=0;strokeWidth=1;shadow=0;" vertex="1" parent="dBIomlq2-YmWtFzMOmSG-140">
          <mxGeometry x="980" y="45" width="120" height="40" as="geometry" />
        </mxCell>
        <mxCell id="dBIomlq2-YmWtFzMOmSG-175" value="Access database and update post" style="whiteSpace=wrap;html=1;rounded=1;glass=0;strokeWidth=1;shadow=0;" vertex="1" parent="dBIomlq2-YmWtFzMOmSG-140">
          <mxGeometry x="980" y="150" width="120" height="40" as="geometry" />
        </mxCell>
        <mxCell id="dBIomlq2-YmWtFzMOmSG-176" style="edgeStyle=orthogonalEdgeStyle;rounded=0;orthogonalLoop=1;jettySize=auto;html=1;" edge="1" parent="dBIomlq2-YmWtFzMOmSG-140" source="dBIomlq2-YmWtFzMOmSG-174" target="dBIomlq2-YmWtFzMOmSG-175">
          <mxGeometry relative="1" as="geometry" />
        </mxCell>
        <mxCell id="dBIomlq2-YmWtFzMOmSG-177" value="" style="rhombus;whiteSpace=wrap;html=1;shadow=0;fontFamily=Helvetica;fontSize=12;align=center;strokeWidth=1;spacing=6;spacingTop=-4;" vertex="1" parent="dBIomlq2-YmWtFzMOmSG-140">
          <mxGeometry x="990" y="250" width="100" height="80" as="geometry" />
        </mxCell>
        <mxCell id="dBIomlq2-YmWtFzMOmSG-178" value="" style="edgeStyle=orthogonalEdgeStyle;rounded=0;orthogonalLoop=1;jettySize=auto;html=1;entryX=0.5;entryY=0;entryDx=0;entryDy=0;endArrow=block;endFill=1;" edge="1" parent="dBIomlq2-YmWtFzMOmSG-140" source="dBIomlq2-YmWtFzMOmSG-175" target="dBIomlq2-YmWtFzMOmSG-177">
          <mxGeometry relative="1" as="geometry">
            <mxPoint x="1040" y="250" as="targetPoint" />
          </mxGeometry>
        </mxCell>
        <mxCell id="dBIomlq2-YmWtFzMOmSG-179" value="Return null" style="rounded=1;whiteSpace=wrap;html=1;fontSize=12;glass=0;strokeWidth=1;shadow=0;" vertex="1" parent="dBIomlq2-YmWtFzMOmSG-140">
          <mxGeometry x="910" y="400" width="120" height="40" as="geometry" />
        </mxCell>
        <mxCell id="dBIomlq2-YmWtFzMOmSG-180" value="" style="edgeStyle=orthogonalEdgeStyle;rounded=0;orthogonalLoop=1;jettySize=auto;html=1;endArrow=block;endFill=1;" edge="1" parent="dBIomlq2-YmWtFzMOmSG-140" source="dBIomlq2-YmWtFzMOmSG-177" target="dBIomlq2-YmWtFzMOmSG-179">
          <mxGeometry relative="1" as="geometry">
            <mxPoint x="980" y="380.0000000000001" as="targetPoint" />
          </mxGeometry>
        </mxCell>
        <mxCell id="dBIomlq2-YmWtFzMOmSG-181" value="Success" style="edgeLabel;html=1;align=center;verticalAlign=middle;resizable=0;points=[];" vertex="1" connectable="0" parent="dBIomlq2-YmWtFzMOmSG-180">
          <mxGeometry x="0.2167" y="-1" relative="1" as="geometry">
            <mxPoint x="8" y="1" as="offset" />
          </mxGeometry>
        </mxCell>
        <mxCell id="dBIomlq2-YmWtFzMOmSG-182" value="Return error" style="rounded=1;whiteSpace=wrap;html=1;fontSize=12;glass=0;strokeWidth=1;shadow=0;" vertex="1" parent="dBIomlq2-YmWtFzMOmSG-140">
          <mxGeometry x="1050" y="400" width="120" height="40" as="geometry" />
        </mxCell>
        <mxCell id="dBIomlq2-YmWtFzMOmSG-183" style="edgeStyle=orthogonalEdgeStyle;rounded=0;orthogonalLoop=1;jettySize=auto;html=1;exitX=0.5;exitY=1;exitDx=0;exitDy=0;endArrow=block;endFill=1;" edge="1" parent="dBIomlq2-YmWtFzMOmSG-140" source="dBIomlq2-YmWtFzMOmSG-177" target="dBIomlq2-YmWtFzMOmSG-182">
          <mxGeometry relative="1" as="geometry" />
        </mxCell>
        <mxCell id="dBIomlq2-YmWtFzMOmSG-184" value="Error" style="edgeLabel;html=1;align=center;verticalAlign=middle;resizable=0;points=[];" vertex="1" connectable="0" parent="dBIomlq2-YmWtFzMOmSG-183">
          <mxGeometry x="-0.549" y="2" relative="1" as="geometry">
            <mxPoint x="31" y="4" as="offset" />
          </mxGeometry>
        </mxCell>
        <mxCell id="dBIomlq2-YmWtFzMOmSG-185" value="Delete post" style="rounded=1;whiteSpace=wrap;html=1;fontSize=12;glass=0;strokeWidth=1;shadow=0;" vertex="1" parent="dBIomlq2-YmWtFzMOmSG-140">
          <mxGeometry x="1260" y="45" width="120" height="40" as="geometry" />
        </mxCell>
        <mxCell id="dBIomlq2-YmWtFzMOmSG-186" value="Access database and delete post" style="whiteSpace=wrap;html=1;rounded=1;glass=0;strokeWidth=1;shadow=0;" vertex="1" parent="dBIomlq2-YmWtFzMOmSG-140">
          <mxGeometry x="1260" y="150" width="120" height="40" as="geometry" />
        </mxCell>
        <mxCell id="dBIomlq2-YmWtFzMOmSG-187" style="edgeStyle=orthogonalEdgeStyle;rounded=0;orthogonalLoop=1;jettySize=auto;html=1;" edge="1" parent="dBIomlq2-YmWtFzMOmSG-140" source="dBIomlq2-YmWtFzMOmSG-185" target="dBIomlq2-YmWtFzMOmSG-186">
          <mxGeometry relative="1" as="geometry" />
        </mxCell>
        <mxCell id="dBIomlq2-YmWtFzMOmSG-188" value="" style="rhombus;whiteSpace=wrap;html=1;shadow=0;fontFamily=Helvetica;fontSize=12;align=center;strokeWidth=1;spacing=6;spacingTop=-4;" vertex="1" parent="dBIomlq2-YmWtFzMOmSG-140">
          <mxGeometry x="1270" y="250" width="100" height="80" as="geometry" />
        </mxCell>
        <mxCell id="dBIomlq2-YmWtFzMOmSG-189" value="" style="edgeStyle=orthogonalEdgeStyle;rounded=0;orthogonalLoop=1;jettySize=auto;html=1;entryX=0.5;entryY=0;entryDx=0;entryDy=0;endArrow=block;endFill=1;" edge="1" parent="dBIomlq2-YmWtFzMOmSG-140" source="dBIomlq2-YmWtFzMOmSG-186" target="dBIomlq2-YmWtFzMOmSG-188">
          <mxGeometry relative="1" as="geometry">
            <mxPoint x="1320" y="250" as="targetPoint" />
          </mxGeometry>
        </mxCell>
        <mxCell id="dBIomlq2-YmWtFzMOmSG-190" value="Return null" style="rounded=1;whiteSpace=wrap;html=1;fontSize=12;glass=0;strokeWidth=1;shadow=0;" vertex="1" parent="dBIomlq2-YmWtFzMOmSG-140">
          <mxGeometry x="1190" y="400" width="120" height="40" as="geometry" />
        </mxCell>
        <mxCell id="dBIomlq2-YmWtFzMOmSG-191" value="" style="edgeStyle=orthogonalEdgeStyle;rounded=0;orthogonalLoop=1;jettySize=auto;html=1;endArrow=block;endFill=1;" edge="1" parent="dBIomlq2-YmWtFzMOmSG-140" source="dBIomlq2-YmWtFzMOmSG-188" target="dBIomlq2-YmWtFzMOmSG-190">
          <mxGeometry relative="1" as="geometry">
            <mxPoint x="1260" y="380.0000000000001" as="targetPoint" />
          </mxGeometry>
        </mxCell>
        <mxCell id="dBIomlq2-YmWtFzMOmSG-192" value="Success" style="edgeLabel;html=1;align=center;verticalAlign=middle;resizable=0;points=[];" vertex="1" connectable="0" parent="dBIomlq2-YmWtFzMOmSG-191">
          <mxGeometry x="0.2167" y="-1" relative="1" as="geometry">
            <mxPoint x="8" y="1" as="offset" />
          </mxGeometry>
        </mxCell>
        <mxCell id="dBIomlq2-YmWtFzMOmSG-193" value="Return error" style="rounded=1;whiteSpace=wrap;html=1;fontSize=12;glass=0;strokeWidth=1;shadow=0;" vertex="1" parent="dBIomlq2-YmWtFzMOmSG-140">
          <mxGeometry x="1330" y="400" width="120" height="40" as="geometry" />
        </mxCell>
        <mxCell id="dBIomlq2-YmWtFzMOmSG-194" style="edgeStyle=orthogonalEdgeStyle;rounded=0;orthogonalLoop=1;jettySize=auto;html=1;exitX=0.5;exitY=1;exitDx=0;exitDy=0;endArrow=block;endFill=1;" edge="1" parent="dBIomlq2-YmWtFzMOmSG-140" source="dBIomlq2-YmWtFzMOmSG-188" target="dBIomlq2-YmWtFzMOmSG-193">
          <mxGeometry relative="1" as="geometry" />
        </mxCell>
        <mxCell id="dBIomlq2-YmWtFzMOmSG-195" value="Error" style="edgeLabel;html=1;align=center;verticalAlign=middle;resizable=0;points=[];" vertex="1" connectable="0" parent="dBIomlq2-YmWtFzMOmSG-194">
          <mxGeometry x="-0.549" y="2" relative="1" as="geometry">
            <mxPoint x="31" y="4" as="offset" />
          </mxGeometry>
        </mxCell>
        <mxCell id="dBIomlq2-YmWtFzMOmSG-311" value="Posts Controller" style="swimlane;startSize=20;" vertex="1" parent="WIyWlLk6GJQsqaUBKTNV-1">
          <mxGeometry x="-650" y="-270" width="1650" height="730" as="geometry" />
        </mxCell>
        <mxCell id="dBIomlq2-YmWtFzMOmSG-312" value="Get posts" style="rounded=1;whiteSpace=wrap;html=1;fontSize=12;glass=0;strokeWidth=1;shadow=0;" vertex="1" parent="dBIomlq2-YmWtFzMOmSG-311">
          <mxGeometry x="240" y="50" width="120" height="40" as="geometry" />
        </mxCell>
        <mxCell id="dBIomlq2-YmWtFzMOmSG-313" value="Get posts from redis" style="whiteSpace=wrap;html=1;rounded=1;glass=0;strokeWidth=1;shadow=0;" vertex="1" parent="dBIomlq2-YmWtFzMOmSG-311">
          <mxGeometry x="240" y="155" width="120" height="40" as="geometry" />
        </mxCell>
        <mxCell id="dBIomlq2-YmWtFzMOmSG-314" style="edgeStyle=orthogonalEdgeStyle;rounded=0;orthogonalLoop=1;jettySize=auto;html=1;" edge="1" parent="dBIomlq2-YmWtFzMOmSG-311" source="dBIomlq2-YmWtFzMOmSG-312" target="dBIomlq2-YmWtFzMOmSG-313">
          <mxGeometry relative="1" as="geometry" />
        </mxCell>
        <mxCell id="dBIomlq2-YmWtFzMOmSG-315" value="has data?" style="rhombus;whiteSpace=wrap;html=1;shadow=0;fontFamily=Helvetica;fontSize=12;align=center;strokeWidth=1;spacing=6;spacingTop=-4;" vertex="1" parent="dBIomlq2-YmWtFzMOmSG-311">
          <mxGeometry x="250" y="255" width="100" height="80" as="geometry" />
        </mxCell>
        <mxCell id="dBIomlq2-YmWtFzMOmSG-316" value="" style="edgeStyle=orthogonalEdgeStyle;rounded=0;orthogonalLoop=1;jettySize=auto;html=1;entryX=0.5;entryY=0;entryDx=0;entryDy=0;endArrow=block;endFill=1;" edge="1" parent="dBIomlq2-YmWtFzMOmSG-311" source="dBIomlq2-YmWtFzMOmSG-313" target="dBIomlq2-YmWtFzMOmSG-315">
          <mxGeometry relative="1" as="geometry">
            <mxPoint x="160" y="255" as="targetPoint" />
          </mxGeometry>
        </mxCell>
        <mxCell id="dBIomlq2-YmWtFzMOmSG-317" style="edgeStyle=orthogonalEdgeStyle;rounded=0;orthogonalLoop=1;jettySize=auto;html=1;" edge="1" parent="dBIomlq2-YmWtFzMOmSG-311" source="dBIomlq2-YmWtFzMOmSG-318" target="dBIomlq2-YmWtFzMOmSG-327">
          <mxGeometry relative="1" as="geometry" />
        </mxCell>
        <mxCell id="dBIomlq2-YmWtFzMOmSG-318" value="Get posts from repository" style="rounded=1;whiteSpace=wrap;html=1;fontSize=12;glass=0;strokeWidth=1;shadow=0;" vertex="1" parent="dBIomlq2-YmWtFzMOmSG-311">
          <mxGeometry x="240" y="370" width="120" height="40" as="geometry" />
        </mxCell>
        <mxCell id="dBIomlq2-YmWtFzMOmSG-319" style="edgeStyle=orthogonalEdgeStyle;rounded=0;orthogonalLoop=1;jettySize=auto;html=1;endArrow=block;endFill=1;" edge="1" parent="dBIomlq2-YmWtFzMOmSG-311" source="dBIomlq2-YmWtFzMOmSG-315" target="dBIomlq2-YmWtFzMOmSG-318">
          <mxGeometry relative="1" as="geometry">
            <mxPoint x="-10" y="390" as="sourcePoint" />
          </mxGeometry>
        </mxCell>
        <mxCell id="dBIomlq2-YmWtFzMOmSG-320" value="Fail" style="edgeLabel;html=1;align=center;verticalAlign=middle;resizable=0;points=[];" vertex="1" connectable="0" parent="dBIomlq2-YmWtFzMOmSG-319">
          <mxGeometry x="-0.549" y="2" relative="1" as="geometry">
            <mxPoint x="20" y="3" as="offset" />
          </mxGeometry>
        </mxCell>
        <mxCell id="dBIomlq2-YmWtFzMOmSG-321" style="edgeStyle=orthogonalEdgeStyle;rounded=0;orthogonalLoop=1;jettySize=auto;html=1;entryX=0.5;entryY=0;entryDx=0;entryDy=0;" edge="1" parent="dBIomlq2-YmWtFzMOmSG-311" source="dBIomlq2-YmWtFzMOmSG-322" target="dBIomlq2-YmWtFzMOmSG-328">
          <mxGeometry relative="1" as="geometry">
            <mxPoint x="160" y="645" as="targetPoint" />
          </mxGeometry>
        </mxCell>
        <mxCell id="dBIomlq2-YmWtFzMOmSG-322" value="Return data" style="rounded=1;whiteSpace=wrap;html=1;fontSize=12;glass=0;strokeWidth=1;shadow=0;" vertex="1" parent="dBIomlq2-YmWtFzMOmSG-311">
          <mxGeometry x="110" y="500" width="120" height="40" as="geometry" />
        </mxCell>
        <mxCell id="dBIomlq2-YmWtFzMOmSG-323" style="edgeStyle=orthogonalEdgeStyle;rounded=0;orthogonalLoop=1;jettySize=auto;html=1;entryX=0.5;entryY=0;entryDx=0;entryDy=0;" edge="1" parent="dBIomlq2-YmWtFzMOmSG-311" source="dBIomlq2-YmWtFzMOmSG-327" target="dBIomlq2-YmWtFzMOmSG-322">
          <mxGeometry relative="1" as="geometry" />
        </mxCell>
        <mxCell id="dBIomlq2-YmWtFzMOmSG-324" value="Success" style="edgeLabel;html=1;align=center;verticalAlign=middle;resizable=0;points=[];" vertex="1" connectable="0" parent="dBIomlq2-YmWtFzMOmSG-323">
          <mxGeometry x="-0.4571" relative="1" as="geometry">
            <mxPoint as="offset" />
          </mxGeometry>
        </mxCell>
        <mxCell id="dBIomlq2-YmWtFzMOmSG-325" style="edgeStyle=orthogonalEdgeStyle;rounded=0;orthogonalLoop=1;jettySize=auto;html=1;entryX=0.5;entryY=0;entryDx=0;entryDy=0;" edge="1" parent="dBIomlq2-YmWtFzMOmSG-311" source="dBIomlq2-YmWtFzMOmSG-327" target="dBIomlq2-YmWtFzMOmSG-329">
          <mxGeometry relative="1" as="geometry" />
        </mxCell>
        <mxCell id="dBIomlq2-YmWtFzMOmSG-326" value="Fail" style="edgeLabel;html=1;align=center;verticalAlign=middle;resizable=0;points=[];" vertex="1" connectable="0" parent="dBIomlq2-YmWtFzMOmSG-325">
          <mxGeometry x="0.1559" y="-1" relative="1" as="geometry">
            <mxPoint as="offset" />
          </mxGeometry>
        </mxCell>
        <mxCell id="dBIomlq2-YmWtFzMOmSG-327" value="" style="rhombus;whiteSpace=wrap;html=1;shadow=0;fontFamily=Helvetica;fontSize=12;align=center;strokeWidth=1;spacing=6;spacingTop=-4;" vertex="1" parent="dBIomlq2-YmWtFzMOmSG-311">
          <mxGeometry x="270" y="431.25" width="60" height="57.5" as="geometry" />
        </mxCell>
        <mxCell id="dBIomlq2-YmWtFzMOmSG-328" value="Set posts in redis" style="rounded=1;whiteSpace=wrap;html=1;fontSize=12;glass=0;strokeWidth=1;shadow=0;" vertex="1" parent="dBIomlq2-YmWtFzMOmSG-311">
          <mxGeometry x="110" y="625" width="120" height="40" as="geometry" />
        </mxCell>
        <mxCell id="dBIomlq2-YmWtFzMOmSG-329" value="Return error" style="rounded=1;whiteSpace=wrap;html=1;fontSize=12;glass=0;strokeWidth=1;shadow=0;" vertex="1" parent="dBIomlq2-YmWtFzMOmSG-311">
          <mxGeometry x="240" y="625" width="120" height="40" as="geometry" />
        </mxCell>
        <mxCell id="dBIomlq2-YmWtFzMOmSG-330" value="Return data" style="rounded=1;whiteSpace=wrap;html=1;fontSize=12;glass=0;strokeWidth=1;shadow=0;" vertex="1" parent="dBIomlq2-YmWtFzMOmSG-311">
          <mxGeometry x="110" y="370" width="120" height="40" as="geometry" />
        </mxCell>
        <mxCell id="dBIomlq2-YmWtFzMOmSG-331" value="" style="edgeStyle=orthogonalEdgeStyle;rounded=0;orthogonalLoop=1;jettySize=auto;html=1;endArrow=block;endFill=1;" edge="1" parent="dBIomlq2-YmWtFzMOmSG-311" source="dBIomlq2-YmWtFzMOmSG-315" target="dBIomlq2-YmWtFzMOmSG-330">
          <mxGeometry relative="1" as="geometry">
            <mxPoint x="230" y="375.0000000000001" as="targetPoint" />
          </mxGeometry>
        </mxCell>
        <mxCell id="dBIomlq2-YmWtFzMOmSG-332" value="Success" style="edgeLabel;html=1;align=center;verticalAlign=middle;resizable=0;points=[];" vertex="1" connectable="0" parent="dBIomlq2-YmWtFzMOmSG-331">
          <mxGeometry x="0.2167" y="-1" relative="1" as="geometry">
            <mxPoint x="8" y="1" as="offset" />
          </mxGeometry>
        </mxCell>
        <mxCell id="dBIomlq2-YmWtFzMOmSG-333" value="Find post" style="rounded=1;whiteSpace=wrap;html=1;fontSize=12;glass=0;strokeWidth=1;shadow=0;" vertex="1" parent="dBIomlq2-YmWtFzMOmSG-311">
          <mxGeometry x="550" y="50" width="120" height="40" as="geometry" />
        </mxCell>
        <mxCell id="dBIomlq2-YmWtFzMOmSG-334" value="Get post from redis" style="whiteSpace=wrap;html=1;rounded=1;glass=0;strokeWidth=1;shadow=0;" vertex="1" parent="dBIomlq2-YmWtFzMOmSG-311">
          <mxGeometry x="550" y="155" width="120" height="40" as="geometry" />
        </mxCell>
        <mxCell id="dBIomlq2-YmWtFzMOmSG-335" style="edgeStyle=orthogonalEdgeStyle;rounded=0;orthogonalLoop=1;jettySize=auto;html=1;" edge="1" parent="dBIomlq2-YmWtFzMOmSG-311" source="dBIomlq2-YmWtFzMOmSG-333" target="dBIomlq2-YmWtFzMOmSG-334">
          <mxGeometry relative="1" as="geometry" />
        </mxCell>
        <mxCell id="dBIomlq2-YmWtFzMOmSG-336" value="has data?" style="rhombus;whiteSpace=wrap;html=1;shadow=0;fontFamily=Helvetica;fontSize=12;align=center;strokeWidth=1;spacing=6;spacingTop=-4;" vertex="1" parent="dBIomlq2-YmWtFzMOmSG-311">
          <mxGeometry x="560" y="255" width="100" height="80" as="geometry" />
        </mxCell>
        <mxCell id="dBIomlq2-YmWtFzMOmSG-337" value="" style="edgeStyle=orthogonalEdgeStyle;rounded=0;orthogonalLoop=1;jettySize=auto;html=1;entryX=0.5;entryY=0;entryDx=0;entryDy=0;endArrow=block;endFill=1;" edge="1" parent="dBIomlq2-YmWtFzMOmSG-311" source="dBIomlq2-YmWtFzMOmSG-334" target="dBIomlq2-YmWtFzMOmSG-336">
          <mxGeometry relative="1" as="geometry">
            <mxPoint x="470" y="255" as="targetPoint" />
          </mxGeometry>
        </mxCell>
        <mxCell id="dBIomlq2-YmWtFzMOmSG-338" value="Get post from repository" style="rounded=1;whiteSpace=wrap;html=1;fontSize=12;glass=0;strokeWidth=1;shadow=0;" vertex="1" parent="dBIomlq2-YmWtFzMOmSG-311">
          <mxGeometry x="550" y="370" width="120" height="40" as="geometry" />
        </mxCell>
        <mxCell id="dBIomlq2-YmWtFzMOmSG-339" style="edgeStyle=orthogonalEdgeStyle;rounded=0;orthogonalLoop=1;jettySize=auto;html=1;endArrow=block;endFill=1;" edge="1" parent="dBIomlq2-YmWtFzMOmSG-311" source="dBIomlq2-YmWtFzMOmSG-336" target="dBIomlq2-YmWtFzMOmSG-338">
          <mxGeometry relative="1" as="geometry">
            <mxPoint x="300" y="390" as="sourcePoint" />
          </mxGeometry>
        </mxCell>
        <mxCell id="dBIomlq2-YmWtFzMOmSG-340" value="Fail" style="edgeLabel;html=1;align=center;verticalAlign=middle;resizable=0;points=[];" vertex="1" connectable="0" parent="dBIomlq2-YmWtFzMOmSG-339">
          <mxGeometry x="-0.549" y="2" relative="1" as="geometry">
            <mxPoint x="20" y="3" as="offset" />
          </mxGeometry>
        </mxCell>
        <mxCell id="dBIomlq2-YmWtFzMOmSG-341" value="Return data" style="rounded=1;whiteSpace=wrap;html=1;fontSize=12;glass=0;strokeWidth=1;shadow=0;" vertex="1" parent="dBIomlq2-YmWtFzMOmSG-311">
          <mxGeometry x="420" y="500" width="120" height="40" as="geometry" />
        </mxCell>
        <mxCell id="dBIomlq2-YmWtFzMOmSG-342" style="edgeStyle=orthogonalEdgeStyle;rounded=0;orthogonalLoop=1;jettySize=auto;html=1;entryX=0.5;entryY=0;entryDx=0;entryDy=0;" edge="1" parent="dBIomlq2-YmWtFzMOmSG-311" source="dBIomlq2-YmWtFzMOmSG-344" target="dBIomlq2-YmWtFzMOmSG-341">
          <mxGeometry relative="1" as="geometry" />
        </mxCell>
        <mxCell id="dBIomlq2-YmWtFzMOmSG-343" value="Success" style="edgeLabel;html=1;align=center;verticalAlign=middle;resizable=0;points=[];" vertex="1" connectable="0" parent="dBIomlq2-YmWtFzMOmSG-342">
          <mxGeometry x="-0.4571" relative="1" as="geometry">
            <mxPoint as="offset" />
          </mxGeometry>
        </mxCell>
        <mxCell id="dBIomlq2-YmWtFzMOmSG-344" value="" style="rhombus;whiteSpace=wrap;html=1;shadow=0;fontFamily=Helvetica;fontSize=12;align=center;strokeWidth=1;spacing=6;spacingTop=-4;" vertex="1" parent="dBIomlq2-YmWtFzMOmSG-311">
          <mxGeometry x="580" y="431.25" width="60" height="57.5" as="geometry" />
        </mxCell>
        <mxCell id="dBIomlq2-YmWtFzMOmSG-345" style="edgeStyle=orthogonalEdgeStyle;rounded=0;orthogonalLoop=1;jettySize=auto;html=1;" edge="1" parent="dBIomlq2-YmWtFzMOmSG-311" source="dBIomlq2-YmWtFzMOmSG-338" target="dBIomlq2-YmWtFzMOmSG-344">
          <mxGeometry relative="1" as="geometry" />
        </mxCell>
        <mxCell id="dBIomlq2-YmWtFzMOmSG-346" value="Set post in redis" style="rounded=1;whiteSpace=wrap;html=1;fontSize=12;glass=0;strokeWidth=1;shadow=0;" vertex="1" parent="dBIomlq2-YmWtFzMOmSG-311">
          <mxGeometry x="420" y="625" width="120" height="40" as="geometry" />
        </mxCell>
        <mxCell id="dBIomlq2-YmWtFzMOmSG-347" style="edgeStyle=orthogonalEdgeStyle;rounded=0;orthogonalLoop=1;jettySize=auto;html=1;entryX=0.5;entryY=0;entryDx=0;entryDy=0;" edge="1" parent="dBIomlq2-YmWtFzMOmSG-311" source="dBIomlq2-YmWtFzMOmSG-341" target="dBIomlq2-YmWtFzMOmSG-346">
          <mxGeometry relative="1" as="geometry">
            <mxPoint x="470" y="645" as="targetPoint" />
          </mxGeometry>
        </mxCell>
        <mxCell id="dBIomlq2-YmWtFzMOmSG-348" value="Return error" style="rounded=1;whiteSpace=wrap;html=1;fontSize=12;glass=0;strokeWidth=1;shadow=0;" vertex="1" parent="dBIomlq2-YmWtFzMOmSG-311">
          <mxGeometry x="550" y="625" width="120" height="40" as="geometry" />
        </mxCell>
        <mxCell id="dBIomlq2-YmWtFzMOmSG-349" style="edgeStyle=orthogonalEdgeStyle;rounded=0;orthogonalLoop=1;jettySize=auto;html=1;entryX=0.5;entryY=0;entryDx=0;entryDy=0;" edge="1" parent="dBIomlq2-YmWtFzMOmSG-311" source="dBIomlq2-YmWtFzMOmSG-344" target="dBIomlq2-YmWtFzMOmSG-348">
          <mxGeometry relative="1" as="geometry" />
        </mxCell>
        <mxCell id="dBIomlq2-YmWtFzMOmSG-350" value="Fail" style="edgeLabel;html=1;align=center;verticalAlign=middle;resizable=0;points=[];" vertex="1" connectable="0" parent="dBIomlq2-YmWtFzMOmSG-349">
          <mxGeometry x="0.1559" y="-1" relative="1" as="geometry">
            <mxPoint as="offset" />
          </mxGeometry>
        </mxCell>
        <mxCell id="dBIomlq2-YmWtFzMOmSG-351" value="Return data" style="rounded=1;whiteSpace=wrap;html=1;fontSize=12;glass=0;strokeWidth=1;shadow=0;" vertex="1" parent="dBIomlq2-YmWtFzMOmSG-311">
          <mxGeometry x="420" y="370" width="120" height="40" as="geometry" />
        </mxCell>
        <mxCell id="dBIomlq2-YmWtFzMOmSG-352" value="" style="edgeStyle=orthogonalEdgeStyle;rounded=0;orthogonalLoop=1;jettySize=auto;html=1;endArrow=block;endFill=1;" edge="1" parent="dBIomlq2-YmWtFzMOmSG-311" source="dBIomlq2-YmWtFzMOmSG-336" target="dBIomlq2-YmWtFzMOmSG-351">
          <mxGeometry relative="1" as="geometry">
            <mxPoint x="540" y="375.0000000000001" as="targetPoint" />
          </mxGeometry>
        </mxCell>
        <mxCell id="dBIomlq2-YmWtFzMOmSG-353" value="Success" style="edgeLabel;html=1;align=center;verticalAlign=middle;resizable=0;points=[];" vertex="1" connectable="0" parent="dBIomlq2-YmWtFzMOmSG-352">
          <mxGeometry x="0.2167" y="-1" relative="1" as="geometry">
            <mxPoint x="8" y="1" as="offset" />
          </mxGeometry>
        </mxCell>
        <mxCell id="dBIomlq2-YmWtFzMOmSG-354" value="Create post" style="rounded=1;whiteSpace=wrap;html=1;fontSize=12;glass=0;strokeWidth=1;shadow=0;" vertex="1" parent="dBIomlq2-YmWtFzMOmSG-311">
          <mxGeometry x="880" y="50" width="120" height="40" as="geometry" />
        </mxCell>
        <mxCell id="dBIomlq2-YmWtFzMOmSG-355" style="edgeStyle=orthogonalEdgeStyle;rounded=0;orthogonalLoop=1;jettySize=auto;html=1;entryX=0.5;entryY=0;entryDx=0;entryDy=0;" edge="1" parent="dBIomlq2-YmWtFzMOmSG-311" source="dBIomlq2-YmWtFzMOmSG-354" target="dBIomlq2-YmWtFzMOmSG-356">
          <mxGeometry relative="1" as="geometry">
            <mxPoint x="940" y="155" as="targetPoint" />
          </mxGeometry>
        </mxCell>
        <mxCell id="dBIomlq2-YmWtFzMOmSG-356" value="validate data" style="rhombus;whiteSpace=wrap;html=1;shadow=0;fontFamily=Helvetica;fontSize=12;align=center;strokeWidth=1;spacing=6;spacingTop=-4;" vertex="1" parent="dBIomlq2-YmWtFzMOmSG-311">
          <mxGeometry x="890" y="135" width="100" height="80" as="geometry" />
        </mxCell>
        <mxCell id="dBIomlq2-YmWtFzMOmSG-357" value="Create post from repository" style="rounded=1;whiteSpace=wrap;html=1;fontSize=12;glass=0;strokeWidth=1;shadow=0;" vertex="1" parent="dBIomlq2-YmWtFzMOmSG-311">
          <mxGeometry x="880" y="275" width="120" height="40" as="geometry" />
        </mxCell>
        <mxCell id="dBIomlq2-YmWtFzMOmSG-358" style="edgeStyle=orthogonalEdgeStyle;rounded=0;orthogonalLoop=1;jettySize=auto;html=1;endArrow=block;endFill=1;" edge="1" parent="dBIomlq2-YmWtFzMOmSG-311" source="dBIomlq2-YmWtFzMOmSG-356" target="dBIomlq2-YmWtFzMOmSG-357">
          <mxGeometry relative="1" as="geometry">
            <mxPoint x="630" y="390" as="sourcePoint" />
          </mxGeometry>
        </mxCell>
        <mxCell id="dBIomlq2-YmWtFzMOmSG-359" value="Success" style="edgeLabel;html=1;align=center;verticalAlign=middle;resizable=0;points=[];" vertex="1" connectable="0" parent="dBIomlq2-YmWtFzMOmSG-358">
          <mxGeometry x="-0.549" y="2" relative="1" as="geometry">
            <mxPoint x="20" y="3" as="offset" />
          </mxGeometry>
        </mxCell>
        <mxCell id="dBIomlq2-YmWtFzMOmSG-360" value="Return data" style="rounded=1;whiteSpace=wrap;html=1;fontSize=12;glass=0;strokeWidth=1;shadow=0;" vertex="1" parent="dBIomlq2-YmWtFzMOmSG-311">
          <mxGeometry x="750" y="440" width="120" height="40" as="geometry" />
        </mxCell>
        <mxCell id="dBIomlq2-YmWtFzMOmSG-361" style="edgeStyle=orthogonalEdgeStyle;rounded=0;orthogonalLoop=1;jettySize=auto;html=1;entryX=0.5;entryY=0;entryDx=0;entryDy=0;" edge="1" parent="dBIomlq2-YmWtFzMOmSG-311" source="dBIomlq2-YmWtFzMOmSG-363" target="dBIomlq2-YmWtFzMOmSG-360">
          <mxGeometry relative="1" as="geometry" />
        </mxCell>
        <mxCell id="dBIomlq2-YmWtFzMOmSG-362" value="Success" style="edgeLabel;html=1;align=center;verticalAlign=middle;resizable=0;points=[];" vertex="1" connectable="0" parent="dBIomlq2-YmWtFzMOmSG-361">
          <mxGeometry x="-0.4571" relative="1" as="geometry">
            <mxPoint as="offset" />
          </mxGeometry>
        </mxCell>
        <mxCell id="dBIomlq2-YmWtFzMOmSG-363" value="" style="rhombus;whiteSpace=wrap;html=1;shadow=0;fontFamily=Helvetica;fontSize=12;align=center;strokeWidth=1;spacing=6;spacingTop=-4;" vertex="1" parent="dBIomlq2-YmWtFzMOmSG-311">
          <mxGeometry x="910" y="361.25" width="60" height="57.5" as="geometry" />
        </mxCell>
        <mxCell id="dBIomlq2-YmWtFzMOmSG-364" style="edgeStyle=orthogonalEdgeStyle;rounded=0;orthogonalLoop=1;jettySize=auto;html=1;" edge="1" parent="dBIomlq2-YmWtFzMOmSG-311" source="dBIomlq2-YmWtFzMOmSG-357" target="dBIomlq2-YmWtFzMOmSG-363">
          <mxGeometry relative="1" as="geometry" />
        </mxCell>
        <mxCell id="dBIomlq2-YmWtFzMOmSG-365" value="Delete posts from redis" style="rounded=1;whiteSpace=wrap;html=1;fontSize=12;glass=0;strokeWidth=1;shadow=0;" vertex="1" parent="dBIomlq2-YmWtFzMOmSG-311">
          <mxGeometry x="750" y="520" width="120" height="40" as="geometry" />
        </mxCell>
        <mxCell id="dBIomlq2-YmWtFzMOmSG-366" style="edgeStyle=orthogonalEdgeStyle;rounded=0;orthogonalLoop=1;jettySize=auto;html=1;entryX=0.5;entryY=0;entryDx=0;entryDy=0;" edge="1" parent="dBIomlq2-YmWtFzMOmSG-311" source="dBIomlq2-YmWtFzMOmSG-360" target="dBIomlq2-YmWtFzMOmSG-365">
          <mxGeometry relative="1" as="geometry">
            <mxPoint x="800" y="645" as="targetPoint" />
          </mxGeometry>
        </mxCell>
        <mxCell id="dBIomlq2-YmWtFzMOmSG-367" value="Return error" style="rounded=1;whiteSpace=wrap;html=1;fontSize=12;glass=0;strokeWidth=1;shadow=0;" vertex="1" parent="dBIomlq2-YmWtFzMOmSG-311">
          <mxGeometry x="880" y="520" width="120" height="40" as="geometry" />
        </mxCell>
        <mxCell id="dBIomlq2-YmWtFzMOmSG-368" style="edgeStyle=orthogonalEdgeStyle;rounded=0;orthogonalLoop=1;jettySize=auto;html=1;entryX=0.5;entryY=0;entryDx=0;entryDy=0;" edge="1" parent="dBIomlq2-YmWtFzMOmSG-311" source="dBIomlq2-YmWtFzMOmSG-363" target="dBIomlq2-YmWtFzMOmSG-367">
          <mxGeometry relative="1" as="geometry" />
        </mxCell>
        <mxCell id="dBIomlq2-YmWtFzMOmSG-369" value="Fail" style="edgeLabel;html=1;align=center;verticalAlign=middle;resizable=0;points=[];" vertex="1" connectable="0" parent="dBIomlq2-YmWtFzMOmSG-368">
          <mxGeometry x="0.1559" y="-1" relative="1" as="geometry">
            <mxPoint as="offset" />
          </mxGeometry>
        </mxCell>
        <mxCell id="dBIomlq2-YmWtFzMOmSG-370" value="Return error" style="rounded=1;whiteSpace=wrap;html=1;fontSize=12;glass=0;strokeWidth=1;shadow=0;" vertex="1" parent="dBIomlq2-YmWtFzMOmSG-311">
          <mxGeometry x="750" y="275" width="120" height="40" as="geometry" />
        </mxCell>
        <mxCell id="dBIomlq2-YmWtFzMOmSG-371" value="" style="edgeStyle=orthogonalEdgeStyle;rounded=0;orthogonalLoop=1;jettySize=auto;html=1;endArrow=block;endFill=1;" edge="1" parent="dBIomlq2-YmWtFzMOmSG-311" source="dBIomlq2-YmWtFzMOmSG-356" target="dBIomlq2-YmWtFzMOmSG-370">
          <mxGeometry relative="1" as="geometry">
            <mxPoint x="870" y="375.0000000000001" as="targetPoint" />
          </mxGeometry>
        </mxCell>
        <mxCell id="dBIomlq2-YmWtFzMOmSG-372" value="Fail" style="edgeLabel;html=1;align=center;verticalAlign=middle;resizable=0;points=[];" vertex="1" connectable="0" parent="dBIomlq2-YmWtFzMOmSG-371">
          <mxGeometry x="0.2167" y="-1" relative="1" as="geometry">
            <mxPoint x="8" y="1" as="offset" />
          </mxGeometry>
        </mxCell>
        <mxCell id="dBIomlq2-YmWtFzMOmSG-373" value="Update post" style="rounded=1;whiteSpace=wrap;html=1;fontSize=12;glass=0;strokeWidth=1;shadow=0;" vertex="1" parent="dBIomlq2-YmWtFzMOmSG-311">
          <mxGeometry x="1180" y="50" width="120" height="40" as="geometry" />
        </mxCell>
        <mxCell id="dBIomlq2-YmWtFzMOmSG-374" style="edgeStyle=orthogonalEdgeStyle;rounded=0;orthogonalLoop=1;jettySize=auto;html=1;entryX=0.5;entryY=0;entryDx=0;entryDy=0;" edge="1" parent="dBIomlq2-YmWtFzMOmSG-311" source="dBIomlq2-YmWtFzMOmSG-373" target="dBIomlq2-YmWtFzMOmSG-375">
          <mxGeometry relative="1" as="geometry">
            <mxPoint x="1240" y="155" as="targetPoint" />
          </mxGeometry>
        </mxCell>
        <mxCell id="dBIomlq2-YmWtFzMOmSG-375" value="validate data" style="rhombus;whiteSpace=wrap;html=1;shadow=0;fontFamily=Helvetica;fontSize=12;align=center;strokeWidth=1;spacing=6;spacingTop=-4;" vertex="1" parent="dBIomlq2-YmWtFzMOmSG-311">
          <mxGeometry x="1190" y="135" width="100" height="80" as="geometry" />
        </mxCell>
        <mxCell id="dBIomlq2-YmWtFzMOmSG-376" value="Update post from repository" style="rounded=1;whiteSpace=wrap;html=1;fontSize=12;glass=0;strokeWidth=1;shadow=0;" vertex="1" parent="dBIomlq2-YmWtFzMOmSG-311">
          <mxGeometry x="1180" y="275" width="120" height="40" as="geometry" />
        </mxCell>
        <mxCell id="dBIomlq2-YmWtFzMOmSG-377" style="edgeStyle=orthogonalEdgeStyle;rounded=0;orthogonalLoop=1;jettySize=auto;html=1;endArrow=block;endFill=1;" edge="1" parent="dBIomlq2-YmWtFzMOmSG-311" source="dBIomlq2-YmWtFzMOmSG-375" target="dBIomlq2-YmWtFzMOmSG-376">
          <mxGeometry relative="1" as="geometry">
            <mxPoint x="930" y="390" as="sourcePoint" />
          </mxGeometry>
        </mxCell>
        <mxCell id="dBIomlq2-YmWtFzMOmSG-378" value="Success" style="edgeLabel;html=1;align=center;verticalAlign=middle;resizable=0;points=[];" vertex="1" connectable="0" parent="dBIomlq2-YmWtFzMOmSG-377">
          <mxGeometry x="-0.549" y="2" relative="1" as="geometry">
            <mxPoint x="20" y="3" as="offset" />
          </mxGeometry>
        </mxCell>
        <mxCell id="dBIomlq2-YmWtFzMOmSG-379" value="Return data" style="rounded=1;whiteSpace=wrap;html=1;fontSize=12;glass=0;strokeWidth=1;shadow=0;" vertex="1" parent="dBIomlq2-YmWtFzMOmSG-311">
          <mxGeometry x="1050" y="440" width="120" height="40" as="geometry" />
        </mxCell>
        <mxCell id="dBIomlq2-YmWtFzMOmSG-380" style="edgeStyle=orthogonalEdgeStyle;rounded=0;orthogonalLoop=1;jettySize=auto;html=1;entryX=0.5;entryY=0;entryDx=0;entryDy=0;" edge="1" parent="dBIomlq2-YmWtFzMOmSG-311" source="dBIomlq2-YmWtFzMOmSG-382" target="dBIomlq2-YmWtFzMOmSG-379">
          <mxGeometry relative="1" as="geometry" />
        </mxCell>
        <mxCell id="dBIomlq2-YmWtFzMOmSG-381" value="Success" style="edgeLabel;html=1;align=center;verticalAlign=middle;resizable=0;points=[];" vertex="1" connectable="0" parent="dBIomlq2-YmWtFzMOmSG-380">
          <mxGeometry x="-0.4571" relative="1" as="geometry">
            <mxPoint as="offset" />
          </mxGeometry>
        </mxCell>
        <mxCell id="dBIomlq2-YmWtFzMOmSG-382" value="" style="rhombus;whiteSpace=wrap;html=1;shadow=0;fontFamily=Helvetica;fontSize=12;align=center;strokeWidth=1;spacing=6;spacingTop=-4;" vertex="1" parent="dBIomlq2-YmWtFzMOmSG-311">
          <mxGeometry x="1210" y="361.25" width="60" height="57.5" as="geometry" />
        </mxCell>
        <mxCell id="dBIomlq2-YmWtFzMOmSG-383" style="edgeStyle=orthogonalEdgeStyle;rounded=0;orthogonalLoop=1;jettySize=auto;html=1;" edge="1" parent="dBIomlq2-YmWtFzMOmSG-311" source="dBIomlq2-YmWtFzMOmSG-376" target="dBIomlq2-YmWtFzMOmSG-382">
          <mxGeometry relative="1" as="geometry" />
        </mxCell>
        <mxCell id="dBIomlq2-YmWtFzMOmSG-384" value="Delete posts and post from redis" style="rounded=1;whiteSpace=wrap;html=1;fontSize=12;glass=0;strokeWidth=1;shadow=0;" vertex="1" parent="dBIomlq2-YmWtFzMOmSG-311">
          <mxGeometry x="1050" y="520" width="120" height="40" as="geometry" />
        </mxCell>
        <mxCell id="dBIomlq2-YmWtFzMOmSG-385" style="edgeStyle=orthogonalEdgeStyle;rounded=0;orthogonalLoop=1;jettySize=auto;html=1;entryX=0.5;entryY=0;entryDx=0;entryDy=0;" edge="1" parent="dBIomlq2-YmWtFzMOmSG-311" source="dBIomlq2-YmWtFzMOmSG-379" target="dBIomlq2-YmWtFzMOmSG-384">
          <mxGeometry relative="1" as="geometry">
            <mxPoint x="1100" y="645" as="targetPoint" />
          </mxGeometry>
        </mxCell>
        <mxCell id="dBIomlq2-YmWtFzMOmSG-386" value="Return error" style="rounded=1;whiteSpace=wrap;html=1;fontSize=12;glass=0;strokeWidth=1;shadow=0;" vertex="1" parent="dBIomlq2-YmWtFzMOmSG-311">
          <mxGeometry x="1180" y="520" width="120" height="40" as="geometry" />
        </mxCell>
        <mxCell id="dBIomlq2-YmWtFzMOmSG-387" style="edgeStyle=orthogonalEdgeStyle;rounded=0;orthogonalLoop=1;jettySize=auto;html=1;entryX=0.5;entryY=0;entryDx=0;entryDy=0;" edge="1" parent="dBIomlq2-YmWtFzMOmSG-311" source="dBIomlq2-YmWtFzMOmSG-382" target="dBIomlq2-YmWtFzMOmSG-386">
          <mxGeometry relative="1" as="geometry" />
        </mxCell>
        <mxCell id="dBIomlq2-YmWtFzMOmSG-388" value="Fail" style="edgeLabel;html=1;align=center;verticalAlign=middle;resizable=0;points=[];" vertex="1" connectable="0" parent="dBIomlq2-YmWtFzMOmSG-387">
          <mxGeometry x="0.1559" y="-1" relative="1" as="geometry">
            <mxPoint as="offset" />
          </mxGeometry>
        </mxCell>
        <mxCell id="dBIomlq2-YmWtFzMOmSG-389" value="Return error" style="rounded=1;whiteSpace=wrap;html=1;fontSize=12;glass=0;strokeWidth=1;shadow=0;" vertex="1" parent="dBIomlq2-YmWtFzMOmSG-311">
          <mxGeometry x="1050" y="275" width="120" height="40" as="geometry" />
        </mxCell>
        <mxCell id="dBIomlq2-YmWtFzMOmSG-390" value="" style="edgeStyle=orthogonalEdgeStyle;rounded=0;orthogonalLoop=1;jettySize=auto;html=1;endArrow=block;endFill=1;" edge="1" parent="dBIomlq2-YmWtFzMOmSG-311" source="dBIomlq2-YmWtFzMOmSG-375" target="dBIomlq2-YmWtFzMOmSG-389">
          <mxGeometry relative="1" as="geometry">
            <mxPoint x="1170" y="375.0000000000001" as="targetPoint" />
          </mxGeometry>
        </mxCell>
        <mxCell id="dBIomlq2-YmWtFzMOmSG-391" value="Fail" style="edgeLabel;html=1;align=center;verticalAlign=middle;resizable=0;points=[];" vertex="1" connectable="0" parent="dBIomlq2-YmWtFzMOmSG-390">
          <mxGeometry x="0.2167" y="-1" relative="1" as="geometry">
            <mxPoint x="8" y="1" as="offset" />
          </mxGeometry>
        </mxCell>
        <mxCell id="dBIomlq2-YmWtFzMOmSG-392" value="Delete post" style="rounded=1;whiteSpace=wrap;html=1;fontSize=12;glass=0;strokeWidth=1;shadow=0;" vertex="1" parent="dBIomlq2-YmWtFzMOmSG-311">
          <mxGeometry x="1470" y="50" width="120" height="40" as="geometry" />
        </mxCell>
        <mxCell id="dBIomlq2-YmWtFzMOmSG-393" style="edgeStyle=orthogonalEdgeStyle;rounded=0;orthogonalLoop=1;jettySize=auto;html=1;entryX=0.5;entryY=0;entryDx=0;entryDy=0;" edge="1" parent="dBIomlq2-YmWtFzMOmSG-311" source="dBIomlq2-YmWtFzMOmSG-392" target="dBIomlq2-YmWtFzMOmSG-394">
          <mxGeometry relative="1" as="geometry">
            <mxPoint x="1530" y="155" as="targetPoint" />
          </mxGeometry>
        </mxCell>
        <mxCell id="dBIomlq2-YmWtFzMOmSG-394" value="validate data" style="rhombus;whiteSpace=wrap;html=1;shadow=0;fontFamily=Helvetica;fontSize=12;align=center;strokeWidth=1;spacing=6;spacingTop=-4;" vertex="1" parent="dBIomlq2-YmWtFzMOmSG-311">
          <mxGeometry x="1480" y="135" width="100" height="80" as="geometry" />
        </mxCell>
        <mxCell id="dBIomlq2-YmWtFzMOmSG-395" value="Delete post from repository" style="rounded=1;whiteSpace=wrap;html=1;fontSize=12;glass=0;strokeWidth=1;shadow=0;" vertex="1" parent="dBIomlq2-YmWtFzMOmSG-311">
          <mxGeometry x="1470" y="275" width="120" height="40" as="geometry" />
        </mxCell>
        <mxCell id="dBIomlq2-YmWtFzMOmSG-396" style="edgeStyle=orthogonalEdgeStyle;rounded=0;orthogonalLoop=1;jettySize=auto;html=1;endArrow=block;endFill=1;" edge="1" parent="dBIomlq2-YmWtFzMOmSG-311" source="dBIomlq2-YmWtFzMOmSG-394" target="dBIomlq2-YmWtFzMOmSG-395">
          <mxGeometry relative="1" as="geometry">
            <mxPoint x="1220" y="390" as="sourcePoint" />
          </mxGeometry>
        </mxCell>
        <mxCell id="dBIomlq2-YmWtFzMOmSG-397" value="Success" style="edgeLabel;html=1;align=center;verticalAlign=middle;resizable=0;points=[];" vertex="1" connectable="0" parent="dBIomlq2-YmWtFzMOmSG-396">
          <mxGeometry x="-0.549" y="2" relative="1" as="geometry">
            <mxPoint x="20" y="3" as="offset" />
          </mxGeometry>
        </mxCell>
        <mxCell id="dBIomlq2-YmWtFzMOmSG-398" value="Return data" style="rounded=1;whiteSpace=wrap;html=1;fontSize=12;glass=0;strokeWidth=1;shadow=0;" vertex="1" parent="dBIomlq2-YmWtFzMOmSG-311">
          <mxGeometry x="1340" y="440" width="120" height="40" as="geometry" />
        </mxCell>
        <mxCell id="dBIomlq2-YmWtFzMOmSG-399" style="edgeStyle=orthogonalEdgeStyle;rounded=0;orthogonalLoop=1;jettySize=auto;html=1;entryX=0.5;entryY=0;entryDx=0;entryDy=0;" edge="1" parent="dBIomlq2-YmWtFzMOmSG-311" source="dBIomlq2-YmWtFzMOmSG-401" target="dBIomlq2-YmWtFzMOmSG-398">
          <mxGeometry relative="1" as="geometry" />
        </mxCell>
        <mxCell id="dBIomlq2-YmWtFzMOmSG-400" value="Success" style="edgeLabel;html=1;align=center;verticalAlign=middle;resizable=0;points=[];" vertex="1" connectable="0" parent="dBIomlq2-YmWtFzMOmSG-399">
          <mxGeometry x="-0.4571" relative="1" as="geometry">
            <mxPoint as="offset" />
          </mxGeometry>
        </mxCell>
        <mxCell id="dBIomlq2-YmWtFzMOmSG-401" value="" style="rhombus;whiteSpace=wrap;html=1;shadow=0;fontFamily=Helvetica;fontSize=12;align=center;strokeWidth=1;spacing=6;spacingTop=-4;" vertex="1" parent="dBIomlq2-YmWtFzMOmSG-311">
          <mxGeometry x="1500" y="361.25" width="60" height="57.5" as="geometry" />
        </mxCell>
        <mxCell id="dBIomlq2-YmWtFzMOmSG-402" style="edgeStyle=orthogonalEdgeStyle;rounded=0;orthogonalLoop=1;jettySize=auto;html=1;" edge="1" parent="dBIomlq2-YmWtFzMOmSG-311" source="dBIomlq2-YmWtFzMOmSG-395" target="dBIomlq2-YmWtFzMOmSG-401">
          <mxGeometry relative="1" as="geometry" />
        </mxCell>
        <mxCell id="dBIomlq2-YmWtFzMOmSG-403" value="Delete posts and post from redis" style="rounded=1;whiteSpace=wrap;html=1;fontSize=12;glass=0;strokeWidth=1;shadow=0;" vertex="1" parent="dBIomlq2-YmWtFzMOmSG-311">
          <mxGeometry x="1340" y="520" width="120" height="40" as="geometry" />
        </mxCell>
        <mxCell id="dBIomlq2-YmWtFzMOmSG-404" style="edgeStyle=orthogonalEdgeStyle;rounded=0;orthogonalLoop=1;jettySize=auto;html=1;entryX=0.5;entryY=0;entryDx=0;entryDy=0;" edge="1" parent="dBIomlq2-YmWtFzMOmSG-311" source="dBIomlq2-YmWtFzMOmSG-398" target="dBIomlq2-YmWtFzMOmSG-403">
          <mxGeometry relative="1" as="geometry">
            <mxPoint x="1390" y="645" as="targetPoint" />
          </mxGeometry>
        </mxCell>
        <mxCell id="dBIomlq2-YmWtFzMOmSG-405" value="Return error" style="rounded=1;whiteSpace=wrap;html=1;fontSize=12;glass=0;strokeWidth=1;shadow=0;" vertex="1" parent="dBIomlq2-YmWtFzMOmSG-311">
          <mxGeometry x="1470" y="520" width="120" height="40" as="geometry" />
        </mxCell>
        <mxCell id="dBIomlq2-YmWtFzMOmSG-406" style="edgeStyle=orthogonalEdgeStyle;rounded=0;orthogonalLoop=1;jettySize=auto;html=1;entryX=0.5;entryY=0;entryDx=0;entryDy=0;" edge="1" parent="dBIomlq2-YmWtFzMOmSG-311" source="dBIomlq2-YmWtFzMOmSG-401" target="dBIomlq2-YmWtFzMOmSG-405">
          <mxGeometry relative="1" as="geometry" />
        </mxCell>
        <mxCell id="dBIomlq2-YmWtFzMOmSG-407" value="Fail" style="edgeLabel;html=1;align=center;verticalAlign=middle;resizable=0;points=[];" vertex="1" connectable="0" parent="dBIomlq2-YmWtFzMOmSG-406">
          <mxGeometry x="0.1559" y="-1" relative="1" as="geometry">
            <mxPoint as="offset" />
          </mxGeometry>
        </mxCell>
        <mxCell id="dBIomlq2-YmWtFzMOmSG-408" value="Return error" style="rounded=1;whiteSpace=wrap;html=1;fontSize=12;glass=0;strokeWidth=1;shadow=0;" vertex="1" parent="dBIomlq2-YmWtFzMOmSG-311">
          <mxGeometry x="1340" y="275" width="120" height="40" as="geometry" />
        </mxCell>
        <mxCell id="dBIomlq2-YmWtFzMOmSG-409" value="" style="edgeStyle=orthogonalEdgeStyle;rounded=0;orthogonalLoop=1;jettySize=auto;html=1;endArrow=block;endFill=1;" edge="1" parent="dBIomlq2-YmWtFzMOmSG-311" source="dBIomlq2-YmWtFzMOmSG-394" target="dBIomlq2-YmWtFzMOmSG-408">
          <mxGeometry relative="1" as="geometry">
            <mxPoint x="1460" y="375.0000000000001" as="targetPoint" />
          </mxGeometry>
        </mxCell>
        <mxCell id="dBIomlq2-YmWtFzMOmSG-410" value="Fail" style="edgeLabel;html=1;align=center;verticalAlign=middle;resizable=0;points=[];" vertex="1" connectable="0" parent="dBIomlq2-YmWtFzMOmSG-409">
          <mxGeometry x="0.2167" y="-1" relative="1" as="geometry">
            <mxPoint x="8" y="1" as="offset" />
          </mxGeometry>
        </mxCell>
        <mxCell id="dBIomlq2-YmWtFzMOmSG-451" style="edgeStyle=orthogonalEdgeStyle;rounded=0;orthogonalLoop=1;jettySize=auto;html=1;entryX=0.75;entryY=0;entryDx=0;entryDy=0;endArrow=diamondThin;endFill=0;strokeWidth=3;endSize=15;startSize=15;" edge="1" parent="WIyWlLk6GJQsqaUBKTNV-1" source="dBIomlq2-YmWtFzMOmSG-411" target="dBIomlq2-YmWtFzMOmSG-441">
          <mxGeometry relative="1" as="geometry" />
        </mxCell>
        <mxCell id="dBIomlq2-YmWtFzMOmSG-411" value="Tags Controller" style="swimlane;fontStyle=0;childLayout=stackLayout;horizontal=1;startSize=26;fillColor=none;horizontalStack=0;resizeParent=1;resizeParentMax=0;resizeLast=0;collapsible=1;marginBottom=0;html=1;" vertex="1" parent="WIyWlLk6GJQsqaUBKTNV-1">
          <mxGeometry x="3470" y="-230" width="300" height="208" as="geometry" />
        </mxCell>
        <mxCell id="dBIomlq2-YmWtFzMOmSG-418" value="&amp;lt;&amp;lt;constructor&amp;gt;&amp;gt; init()" style="text;strokeColor=none;fillColor=none;align=left;verticalAlign=top;spacingLeft=4;spacingRight=4;overflow=hidden;rotatable=0;points=[[0,0.5],[1,0.5]];portConstraint=eastwest;whiteSpace=wrap;html=1;" vertex="1" parent="dBIomlq2-YmWtFzMOmSG-411">
          <mxGeometry y="26" width="300" height="26" as="geometry" />
        </mxCell>
        <mxCell id="dBIomlq2-YmWtFzMOmSG-412" value="+ GetTags(ctx *gin.Context)：void" style="text;strokeColor=none;fillColor=none;align=left;verticalAlign=top;spacingLeft=4;spacingRight=4;overflow=hidden;rotatable=0;points=[[0,0.5],[1,0.5]];portConstraint=eastwest;whiteSpace=wrap;html=1;" vertex="1" parent="dBIomlq2-YmWtFzMOmSG-411">
          <mxGeometry y="52" width="300" height="26" as="geometry" />
        </mxCell>
        <mxCell id="dBIomlq2-YmWtFzMOmSG-413" value="+ FindTag(ctx *gin.Context)：void" style="text;strokeColor=none;fillColor=none;align=left;verticalAlign=top;spacingLeft=4;spacingRight=4;overflow=hidden;rotatable=0;points=[[0,0.5],[1,0.5]];portConstraint=eastwest;whiteSpace=wrap;html=1;" vertex="1" parent="dBIomlq2-YmWtFzMOmSG-411">
          <mxGeometry y="78" width="300" height="26" as="geometry" />
        </mxCell>
        <mxCell id="dBIomlq2-YmWtFzMOmSG-414" value="+ CreateTag(ctx *gin.Context)：void" style="text;strokeColor=none;fillColor=none;align=left;verticalAlign=top;spacingLeft=4;spacingRight=4;overflow=hidden;rotatable=0;points=[[0,0.5],[1,0.5]];portConstraint=eastwest;whiteSpace=wrap;html=1;" vertex="1" parent="dBIomlq2-YmWtFzMOmSG-411">
          <mxGeometry y="104" width="300" height="26" as="geometry" />
        </mxCell>
        <mxCell id="dBIomlq2-YmWtFzMOmSG-415" value="+ UpdateTag(ctx *gin.Context)：void" style="text;strokeColor=none;fillColor=none;align=left;verticalAlign=top;spacingLeft=4;spacingRight=4;overflow=hidden;rotatable=0;points=[[0,0.5],[1,0.5]];portConstraint=eastwest;whiteSpace=wrap;html=1;" vertex="1" parent="dBIomlq2-YmWtFzMOmSG-411">
          <mxGeometry y="130" width="300" height="26" as="geometry" />
        </mxCell>
        <mxCell id="dBIomlq2-YmWtFzMOmSG-416" value="+ DeleteTag(ctx *gin.Context)：void" style="text;strokeColor=none;fillColor=none;align=left;verticalAlign=top;spacingLeft=4;spacingRight=4;overflow=hidden;rotatable=0;points=[[0,0.5],[1,0.5]];portConstraint=eastwest;whiteSpace=wrap;html=1;" vertex="1" parent="dBIomlq2-YmWtFzMOmSG-411">
          <mxGeometry y="156" width="300" height="26" as="geometry" />
        </mxCell>
        <mxCell id="dBIomlq2-YmWtFzMOmSG-417" value="- getTagId(ctx *gin.Context)：(id:uint,error:error)" style="text;strokeColor=none;fillColor=none;align=left;verticalAlign=top;spacingLeft=4;spacingRight=4;overflow=hidden;rotatable=0;points=[[0,0.5],[1,0.5]];portConstraint=eastwest;whiteSpace=wrap;html=1;" vertex="1" parent="dBIomlq2-YmWtFzMOmSG-411">
          <mxGeometry y="182" width="300" height="26" as="geometry" />
        </mxCell>
        <mxCell id="dBIomlq2-YmWtFzMOmSG-449" style="edgeStyle=orthogonalEdgeStyle;rounded=0;orthogonalLoop=1;jettySize=auto;html=1;entryX=1;entryY=0.5;entryDx=0;entryDy=0;endArrow=diamondThin;endFill=1;strokeWidth=3;endSize=15;startSize=15;" edge="1" parent="WIyWlLk6GJQsqaUBKTNV-1" source="dBIomlq2-YmWtFzMOmSG-419" target="dBIomlq2-YmWtFzMOmSG-430">
          <mxGeometry relative="1" as="geometry" />
        </mxCell>
        <mxCell id="dBIomlq2-YmWtFzMOmSG-452" style="edgeStyle=orthogonalEdgeStyle;rounded=0;orthogonalLoop=1;jettySize=auto;html=1;entryX=0.25;entryY=0;entryDx=0;entryDy=0;endArrow=diamondThin;endFill=0;strokeWidth=3;endSize=15;startSize=15;" edge="1" parent="WIyWlLk6GJQsqaUBKTNV-1" source="dBIomlq2-YmWtFzMOmSG-419" target="dBIomlq2-YmWtFzMOmSG-441">
          <mxGeometry relative="1" as="geometry" />
        </mxCell>
        <mxCell id="dBIomlq2-YmWtFzMOmSG-419" value="Posts Controller" style="swimlane;fontStyle=0;childLayout=stackLayout;horizontal=1;startSize=26;fillColor=none;horizontalStack=0;resizeParent=1;resizeParentMax=0;resizeLast=0;collapsible=1;marginBottom=0;html=1;" vertex="1" parent="WIyWlLk6GJQsqaUBKTNV-1">
          <mxGeometry x="3140" y="-230" width="300" height="208" as="geometry" />
        </mxCell>
        <mxCell id="dBIomlq2-YmWtFzMOmSG-420" value="&amp;lt;&amp;lt;constructor&amp;gt;&amp;gt; init()" style="text;strokeColor=none;fillColor=none;align=left;verticalAlign=top;spacingLeft=4;spacingRight=4;overflow=hidden;rotatable=0;points=[[0,0.5],[1,0.5]];portConstraint=eastwest;whiteSpace=wrap;html=1;" vertex="1" parent="dBIomlq2-YmWtFzMOmSG-419">
          <mxGeometry y="26" width="300" height="26" as="geometry" />
        </mxCell>
        <mxCell id="dBIomlq2-YmWtFzMOmSG-421" value="+ GetPosts(ctx *gin.Context)：void" style="text;strokeColor=none;fillColor=none;align=left;verticalAlign=top;spacingLeft=4;spacingRight=4;overflow=hidden;rotatable=0;points=[[0,0.5],[1,0.5]];portConstraint=eastwest;whiteSpace=wrap;html=1;" vertex="1" parent="dBIomlq2-YmWtFzMOmSG-419">
          <mxGeometry y="52" width="300" height="26" as="geometry" />
        </mxCell>
        <mxCell id="dBIomlq2-YmWtFzMOmSG-422" value="+ FindPost(ctx *gin.Context)：void" style="text;strokeColor=none;fillColor=none;align=left;verticalAlign=top;spacingLeft=4;spacingRight=4;overflow=hidden;rotatable=0;points=[[0,0.5],[1,0.5]];portConstraint=eastwest;whiteSpace=wrap;html=1;" vertex="1" parent="dBIomlq2-YmWtFzMOmSG-419">
          <mxGeometry y="78" width="300" height="26" as="geometry" />
        </mxCell>
        <mxCell id="dBIomlq2-YmWtFzMOmSG-423" value="+ CreatePost(ctx *gin.Context)：void" style="text;strokeColor=none;fillColor=none;align=left;verticalAlign=top;spacingLeft=4;spacingRight=4;overflow=hidden;rotatable=0;points=[[0,0.5],[1,0.5]];portConstraint=eastwest;whiteSpace=wrap;html=1;" vertex="1" parent="dBIomlq2-YmWtFzMOmSG-419">
          <mxGeometry y="104" width="300" height="26" as="geometry" />
        </mxCell>
        <mxCell id="dBIomlq2-YmWtFzMOmSG-424" value="+ UpdatePost(ctx *gin.Context)：void" style="text;strokeColor=none;fillColor=none;align=left;verticalAlign=top;spacingLeft=4;spacingRight=4;overflow=hidden;rotatable=0;points=[[0,0.5],[1,0.5]];portConstraint=eastwest;whiteSpace=wrap;html=1;" vertex="1" parent="dBIomlq2-YmWtFzMOmSG-419">
          <mxGeometry y="130" width="300" height="26" as="geometry" />
        </mxCell>
        <mxCell id="dBIomlq2-YmWtFzMOmSG-425" value="+ DeletePost(ctx *gin.Context)：void" style="text;strokeColor=none;fillColor=none;align=left;verticalAlign=top;spacingLeft=4;spacingRight=4;overflow=hidden;rotatable=0;points=[[0,0.5],[1,0.5]];portConstraint=eastwest;whiteSpace=wrap;html=1;" vertex="1" parent="dBIomlq2-YmWtFzMOmSG-419">
          <mxGeometry y="156" width="300" height="26" as="geometry" />
        </mxCell>
        <mxCell id="dBIomlq2-YmWtFzMOmSG-426" value="- getPostId(ctx *gin.Context)：(id:uint,error:error)" style="text;strokeColor=none;fillColor=none;align=left;verticalAlign=top;spacingLeft=4;spacingRight=4;overflow=hidden;rotatable=0;points=[[0,0.5],[1,0.5]];portConstraint=eastwest;whiteSpace=wrap;html=1;" vertex="1" parent="dBIomlq2-YmWtFzMOmSG-419">
          <mxGeometry y="182" width="300" height="26" as="geometry" />
        </mxCell>
        <mxCell id="dBIomlq2-YmWtFzMOmSG-427" value="Posts Repository" style="swimlane;fontStyle=0;childLayout=stackLayout;horizontal=1;startSize=26;fillColor=none;horizontalStack=0;resizeParent=1;resizeParentMax=0;resizeLast=0;collapsible=1;marginBottom=0;html=1;" vertex="1" parent="WIyWlLk6GJQsqaUBKTNV-1">
          <mxGeometry x="2780" y="-178" width="300" height="156" as="geometry" />
        </mxCell>
        <mxCell id="dBIomlq2-YmWtFzMOmSG-429" value="+ GetPosts()：(posts []models.Post, err error)" style="text;strokeColor=none;fillColor=none;align=left;verticalAlign=top;spacingLeft=4;spacingRight=4;overflow=hidden;rotatable=0;points=[[0,0.5],[1,0.5]];portConstraint=eastwest;whiteSpace=wrap;html=1;" vertex="1" parent="dBIomlq2-YmWtFzMOmSG-427">
          <mxGeometry y="26" width="300" height="26" as="geometry" />
        </mxCell>
        <mxCell id="dBIomlq2-YmWtFzMOmSG-430" value="+ FindPost(id uint)：(post *models.Post, err error)" style="text;strokeColor=none;fillColor=none;align=left;verticalAlign=top;spacingLeft=4;spacingRight=4;overflow=hidden;rotatable=0;points=[[0,0.5],[1,0.5]];portConstraint=eastwest;whiteSpace=wrap;html=1;" vertex="1" parent="dBIomlq2-YmWtFzMOmSG-427">
          <mxGeometry y="52" width="300" height="26" as="geometry" />
        </mxCell>
        <mxCell id="dBIomlq2-YmWtFzMOmSG-431" value="+ CreatePost(post *models.Post)：(err error)" style="text;strokeColor=none;fillColor=none;align=left;verticalAlign=top;spacingLeft=4;spacingRight=4;overflow=hidden;rotatable=0;points=[[0,0.5],[1,0.5]];portConstraint=eastwest;whiteSpace=wrap;html=1;" vertex="1" parent="dBIomlq2-YmWtFzMOmSG-427">
          <mxGeometry y="78" width="300" height="26" as="geometry" />
        </mxCell>
        <mxCell id="dBIomlq2-YmWtFzMOmSG-432" value="+ UpdatePost(post *models.Post)：(err error)" style="text;strokeColor=none;fillColor=none;align=left;verticalAlign=top;spacingLeft=4;spacingRight=4;overflow=hidden;rotatable=0;points=[[0,0.5],[1,0.5]];portConstraint=eastwest;whiteSpace=wrap;html=1;" vertex="1" parent="dBIomlq2-YmWtFzMOmSG-427">
          <mxGeometry y="104" width="300" height="26" as="geometry" />
        </mxCell>
        <mxCell id="dBIomlq2-YmWtFzMOmSG-433" value="+ DeletePost(post *models.Post)：(err error)" style="text;strokeColor=none;fillColor=none;align=left;verticalAlign=top;spacingLeft=4;spacingRight=4;overflow=hidden;rotatable=0;points=[[0,0.5],[1,0.5]];portConstraint=eastwest;whiteSpace=wrap;html=1;" vertex="1" parent="dBIomlq2-YmWtFzMOmSG-427">
          <mxGeometry y="130" width="300" height="26" as="geometry" />
        </mxCell>
        <mxCell id="dBIomlq2-YmWtFzMOmSG-435" value="Tags Repository" style="swimlane;fontStyle=0;childLayout=stackLayout;horizontal=1;startSize=26;fillColor=none;horizontalStack=0;resizeParent=1;resizeParentMax=0;resizeLast=0;collapsible=1;marginBottom=0;html=1;" vertex="1" parent="WIyWlLk6GJQsqaUBKTNV-1">
          <mxGeometry x="3820" y="-178" width="300" height="156" as="geometry" />
        </mxCell>
        <mxCell id="dBIomlq2-YmWtFzMOmSG-436" value="+ GetTags()：(tags []models.Tag, err error)" style="text;strokeColor=none;fillColor=none;align=left;verticalAlign=top;spacingLeft=4;spacingRight=4;overflow=hidden;rotatable=0;points=[[0,0.5],[1,0.5]];portConstraint=eastwest;whiteSpace=wrap;html=1;" vertex="1" parent="dBIomlq2-YmWtFzMOmSG-435">
          <mxGeometry y="26" width="300" height="26" as="geometry" />
        </mxCell>
        <mxCell id="dBIomlq2-YmWtFzMOmSG-437" value="+ FindTag(id uint)：(tag *models.Tag, err error)" style="text;strokeColor=none;fillColor=none;align=left;verticalAlign=top;spacingLeft=4;spacingRight=4;overflow=hidden;rotatable=0;points=[[0,0.5],[1,0.5]];portConstraint=eastwest;whiteSpace=wrap;html=1;" vertex="1" parent="dBIomlq2-YmWtFzMOmSG-435">
          <mxGeometry y="52" width="300" height="26" as="geometry" />
        </mxCell>
        <mxCell id="dBIomlq2-YmWtFzMOmSG-438" value="+ CreateTag(tag *models.Tag)：(err error)" style="text;strokeColor=none;fillColor=none;align=left;verticalAlign=top;spacingLeft=4;spacingRight=4;overflow=hidden;rotatable=0;points=[[0,0.5],[1,0.5]];portConstraint=eastwest;whiteSpace=wrap;html=1;" vertex="1" parent="dBIomlq2-YmWtFzMOmSG-435">
          <mxGeometry y="78" width="300" height="26" as="geometry" />
        </mxCell>
        <mxCell id="dBIomlq2-YmWtFzMOmSG-439" value="+ UpdateTag(tag *models.Tag)：(err error)" style="text;strokeColor=none;fillColor=none;align=left;verticalAlign=top;spacingLeft=4;spacingRight=4;overflow=hidden;rotatable=0;points=[[0,0.5],[1,0.5]];portConstraint=eastwest;whiteSpace=wrap;html=1;" vertex="1" parent="dBIomlq2-YmWtFzMOmSG-435">
          <mxGeometry y="104" width="300" height="26" as="geometry" />
        </mxCell>
        <mxCell id="dBIomlq2-YmWtFzMOmSG-440" value="+ DeleteTag(tag *models.Tag)：(err error)" style="text;strokeColor=none;fillColor=none;align=left;verticalAlign=top;spacingLeft=4;spacingRight=4;overflow=hidden;rotatable=0;points=[[0,0.5],[1,0.5]];portConstraint=eastwest;whiteSpace=wrap;html=1;" vertex="1" parent="dBIomlq2-YmWtFzMOmSG-435">
          <mxGeometry y="130" width="300" height="26" as="geometry" />
        </mxCell>
        <mxCell id="dBIomlq2-YmWtFzMOmSG-441" value="Redis Repository" style="swimlane;fontStyle=0;childLayout=stackLayout;horizontal=1;startSize=26;fillColor=none;horizontalStack=0;resizeParent=1;resizeParentMax=0;resizeLast=0;collapsible=1;marginBottom=0;html=1;" vertex="1" parent="WIyWlLk6GJQsqaUBKTNV-1">
          <mxGeometry x="3250" y="60" width="420" height="130" as="geometry" />
        </mxCell>
        <mxCell id="dBIomlq2-YmWtFzMOmSG-442" value="-&amp;nbsp;expiration：Int" style="text;strokeColor=default;fillColor=none;align=left;verticalAlign=top;spacingLeft=4;spacingRight=4;overflow=hidden;rotatable=0;points=[[0,0.5],[1,0.5]];portConstraint=eastwest;whiteSpace=wrap;html=1;" vertex="1" parent="dBIomlq2-YmWtFzMOmSG-441">
          <mxGeometry y="26" width="420" height="26" as="geometry" />
        </mxCell>
        <mxCell id="dBIomlq2-YmWtFzMOmSG-443" value="+ RedisSet(ctx *gin.Context, key string, value []byte)：(err error)" style="text;strokeColor=none;fillColor=none;align=left;verticalAlign=top;spacingLeft=4;spacingRight=4;overflow=hidden;rotatable=0;points=[[0,0.5],[1,0.5]];portConstraint=eastwest;whiteSpace=wrap;html=1;" vertex="1" parent="dBIomlq2-YmWtFzMOmSG-441">
          <mxGeometry y="52" width="420" height="26" as="geometry" />
        </mxCell>
        <mxCell id="dBIomlq2-YmWtFzMOmSG-447" value="+ RedisGet(ctx *gin.Context, key string)：(val string, err error)" style="text;strokeColor=none;fillColor=none;align=left;verticalAlign=top;spacingLeft=4;spacingRight=4;overflow=hidden;rotatable=0;points=[[0,0.5],[1,0.5]];portConstraint=eastwest;whiteSpace=wrap;html=1;" vertex="1" parent="dBIomlq2-YmWtFzMOmSG-441">
          <mxGeometry y="78" width="420" height="26" as="geometry" />
        </mxCell>
        <mxCell id="dBIomlq2-YmWtFzMOmSG-448" value="+ RedisDelete(ctx *gin.Context, key string)：void" style="text;strokeColor=none;fillColor=none;align=left;verticalAlign=top;spacingLeft=4;spacingRight=4;overflow=hidden;rotatable=0;points=[[0,0.5],[1,0.5]];portConstraint=eastwest;whiteSpace=wrap;html=1;" vertex="1" parent="dBIomlq2-YmWtFzMOmSG-441">
          <mxGeometry y="104" width="420" height="26" as="geometry" />
        </mxCell>
        <mxCell id="dBIomlq2-YmWtFzMOmSG-450" style="edgeStyle=orthogonalEdgeStyle;rounded=0;orthogonalLoop=1;jettySize=auto;html=1;entryX=0;entryY=0.5;entryDx=0;entryDy=0;endArrow=diamondThin;endFill=1;strokeWidth=3;endSize=15;startSize=15;" edge="1" parent="WIyWlLk6GJQsqaUBKTNV-1" source="dBIomlq2-YmWtFzMOmSG-414" target="dBIomlq2-YmWtFzMOmSG-438">
          <mxGeometry relative="1" as="geometry" />
        </mxCell>
      </root>
    </mxGraphModel>
  </diagram>
</mxfile>
